<svg id="Camada_x0020_1" xmlns="http://www.w3.org/2000/svg" width="30" height="30" viewBox="0 0 30 30">
  <g id="_2875350413152">
    <rect id="Retângulo_105" data-name="Retângulo 105" width="30" height="30" rx="4" fill="#900"/>
    <path id="Caminho_200" data-name="Caminho 200" d="M1.433,3.061A1.414,1.414,0,0,1,.19,1.685,1.414,1.414,0,0,1,1.433.31H19.251a1.414,1.414,0,0,1,1.243,1.375,1.414,1.414,0,0,1-1.243,1.375Zm0,14.212a1.382,1.382,0,0,1,0-2.751H19.251a1.382,1.382,0,0,1,0,2.751Zm0-7.106a1.382,1.382,0,0,1,0-2.751H19.251a1.382,1.382,0,0,1,0,2.751Z" transform="translate(4.84 6.417)" fill="#fff"/>
  </g>
</svg>
