<?xml version="1.0" encoding="UTF-8"?>
<!DOCTYPE svg PUBLIC "-//W3C//DTD SVG 1.1//EN" "http://www.w3.org/Graphics/SVG/1.1/DTD/svg11.dtd">
<!-- Creator: CorelDRAW 2018 (64 Bit Versão de avaliação) -->
<svg xmlns="http://www.w3.org/2000/svg" xml:space="preserve" width="8.3688mm" height="8.3689mm" version="1.1" style="shape-rendering:geometricPrecision; text-rendering:geometricPrecision; image-rendering:optimizeQuality; fill-rule:evenodd; clip-rule:evenodd"
viewBox="0 0 35.78 35.78"
 xmlns:xlink="http://www.w3.org/1999/xlink">
 <defs>
  <style type="text/css">
   <![CDATA[
    .fil0 {fill:black}
   ]]>
  </style>
 </defs>
 <g id="Camada_x0020_1">
  <metadata id="CorelCorpID_0Corel-Layer"/>
  <path class="fil0" d="M17.89 0c9.88,0 17.89,8.01 17.89,17.89 0,9.88 -8.01,17.89 -17.89,17.89 -9.88,0 -17.89,-8.01 -17.89,-17.89 0,-9.88 8.01,-17.89 17.89,-17.89zm-10.25 9.46l20.5 0 -10.25 10.17 -10.25 -10.17zm21.66 0.54l0 15.82 -7.91 -7.97 7.91 -7.85zm-1.18 16.33l-20.49 0 7.64 -7.6 2.19 2.17 0.42 0.42 0.42 -0.42 2.23 -2.21 7.58 7.64zm-21.64 -0.54l0 -15.79 7.95 7.88 -7.95 7.91z"/>
 </g>
</svg>
