<?xml version="1.0" encoding="UTF-8"?>
<!DOCTYPE svg PUBLIC "-//W3C//DTD SVG 1.1//EN" "http://www.w3.org/Graphics/SVG/1.1/DTD/svg11.dtd">
<!-- Creator: CorelDRAW 2018 (64 Bit Versão de avaliação) -->
<svg xmlns="http://www.w3.org/2000/svg" xml:space="preserve" width="1.2624mm" height="1.2598mm" version="1.1" style="shape-rendering:geometricPrecision; text-rendering:geometricPrecision; image-rendering:optimizeQuality; fill-rule:evenodd; clip-rule:evenodd"
viewBox="0 0 0.66 0.66"
 xmlns:xlink="http://www.w3.org/1999/xlink">
 <defs>
  <style type="text/css">
   <![CDATA[
    .fil0 {fill:none}
    .fil1 {fill:black}
   ]]>
  </style>
 </defs>
 <g id="Camada_x0020_1">
  <metadata id="CorelCorpID_0Corel-Layer"/>
  <rect class="fil0" width="0.66" height="0.66"/>
  <path class="fil1" d="M0.37 0.03l-0.2 0.06 0 0.24 0 0.24 0.2 0.06 0 -0.3 0 -0.3zm0.13 0.19l0 0.21 0 0.01 0 0.13 -0.12 0 0 -0.01 0.1 0 0 -0.12 0 -0.01 0 -0.21 0 -0.01 0 -0.11 -0.1 0 0 -0.01 0.12 0 0 0.12 0 0.01zm-0.16 0.09c0,0 0.01,0.01 0.01,0.01 0,0 -0,0.01 -0,0.01l0 0.02 -0.01 -0 -0.01 -0 0 -0.02c-0,-0 -0,-0.01 -0,-0.01 0,-0.01 0,-0.01 0.01,-0.01z"/>
 </g>
</svg>
