<svg xmlns="http://www.w3.org/2000/svg" xmlns:xlink="http://www.w3.org/1999/xlink" width="108" height="108" viewBox="0 0 108 108">
  <defs>
    <clipPath id="clip-path">
      <rect id="Ret칙ngulo_73" data-name="Ret칙ngulo 73" width="108" height="108" transform="translate(0 -0.214)" fill="#fff"/>
    </clipPath>
  </defs>
  <g id="Grupo_de_m치scara_13" data-name="Grupo de m치scara 13" transform="translate(0 0.214)" clip-path="url(#clip-path)">
    <g id="Camada_x0020_1" transform="translate(1.086 0.164)">
      <path id="Caminho_164" data-name="Caminho 164" d="M61.568,75.709V65.02H80.38V85.115c0,.817.066.078-.213.641-1.689-.451.715-1.662-5.63-4.845a58.44,58.44,0,0,0-7.81-2.879c-.806-.269-1.707-.536-2.565-.855-.717-.266-1.884-.7-2.592-1.042v-.427ZM29.075,72.5c3.316-1.755,9.753-3.21,13.775-2.445,2.547.484,3.84,1.7,5.747,2.8.527.3.805.472,1.339.8l6.714,3.761A64.955,64.955,0,0,0,65.6,81.3c2.853.96,6.785,1.87,9.165,3.661,1.057.795,1.551.9,1.551,2.724-1.159.31-5.684,5.325-13.555.515a29.588,29.588,0,0,0-5.6-2.736c-2.868-.979-3.061-1.2-5.641-1.2-.592.884-1.372,1.075-.725,2.424.52,1.083,1.523.984,2.729,1.344,6.68,2,5.837,2.689,9.722,4.387a14.563,14.563,0,0,0,8.5,1.168c2.961-.511,4.556-1.612,6.762-3.285a31.051,31.051,0,0,1,4.35-1.849,37.852,37.852,0,0,1,15.478-3.121,4.976,4.976,0,0,1,2.829.805,4.067,4.067,0,0,1,1.018,2.615c0,3.177-4.931,5.546-7.537,6.762l-15.636,6.62c-5.5,2.133-12.534,3.141-18.4,1.331l-.679-.212c-.318-.094-.423-.116-.852-.257L39.936,96.272c-2.248-.605-4.465-1.339-6.784-1.77-1.372-.254-1.763.062-1.935-2.337-.257-3.6-2.141-17.743-2.141-19.663ZM3.636,72.93c2.349-.547,21.051-2.417,21.8-2.779l2.735,23.631c.01.056.027.105.035.163.725,5.379.953,4.536-2.549,4.859L6.842,101.148c0-4.052-2.514-19.828-2.779-24.583C4,75.4,3.636,74.114,3.636,72.93ZM67.554,42.147V41.078c0-3.656,7.054-4.485,7.054.641a3.483,3.483,0,0,1-1.831,3.069l-1.374.374a3.494,3.494,0,0,1-3.849-3.016ZM64.133,43c-2.06.171-3.985,1.454-9.171.62a12.675,12.675,0,0,0-2.159-.406c1.634-2.439,5.132-4.57,6.085-6.275.48-.859,11.812-12,12.3-12.323l6.4,6.281a21.082,21.082,0,0,1,2.839,2.646l1.926,1.708c.536.539,3.4,3.474,4.008,3.474,1.135,0,1.924-.552,1.924-1.71V29.748h6.2V45.781a2.621,2.621,0,0,0,.8,1.764l2.32,3.024c.459.6.767,1.047,1.154,1.624-2.753,0-5-.566-5.6,1.013-.421,1.1-.17,27.043-.17,29.129-2.771,0-6.533,1.518-9.192,2.138V62.455c-.595-.4-.739-.855-1.71-.855H60.839c-2.057,0-2.813,1.477-2.813,3.3l-.082,9.232c-1.154-.427-7.633-4.146-8.624-4.809l-.142-15.083a2.341,2.341,0,0,0-2.6-2.1l-2.542.061,6.037-6.149c4.47,1.989,11.2,2.254,15.554.163,2.412,1.615,1.882,2.351,5.986,2.351a6.621,6.621,0,0,0,4.55-2.077,11.9,11.9,0,0,0,1.354-2.064,7.361,7.361,0,0,0-1.372-7.66c-2.254-2.573-7.871-3.205-10.65.553-1.851,2.5-1.408,3.753-1.364,5.69ZM42.97,15.639c-4.786,0-3.494-5.559-.855-5.559a3.017,3.017,0,0,1,2.613.808,2.818,2.818,0,0,1,.092,3.82,2.519,2.519,0,0,1-1.849.93Zm10.9-7.7c3.969-.088,5-1.467,11.515,1.1a20.307,20.307,0,0,1,5.318,3.447,12.369,12.369,0,0,1,1.979,2.3l1.757,2.733a17.175,17.175,0,0,1,1.267,3.223,12.163,12.163,0,0,1,.611,3.878c-4.446-2.816-4.055-6.842-8.62-1.329L54.334,36.882c-.031.032-.076.075-.106.106l-4.845,4.945c-.545-.365-1-.578-1.588-.978a4.378,4.378,0,0,1-.712-.57,16.711,16.711,0,0,1-3.562-3.493A15.909,15.909,0,0,1,41.4,33.451a13.049,13.049,0,0,1-1.214-4.344c6.374,0,11.141-2.89,13.679-7.91a15.062,15.062,0,0,0,0-13.254Zm-17.53,4.489a6.2,6.2,0,0,0,1.97,4.87c4.279,4.072,10.642.465,10.642-4.656,0-1.081-.4-1.448-.428-2.565a19.029,19.029,0,0,1,1.924-1.069,11.507,11.507,0,0,1,.643,9.836c-.217.473-.6,1.281-.857,1.708a11.2,11.2,0,0,1-4.843,4.123c-4.172,1.8-7.853.153-9.479.153-1.733,0-4.388,4.331-5.909,4.993-2.854,1.242-4.241-.391-5.079,3.044-.2.829-.38,1.472-.555,2.223-1.607.375-3.566.21-4.221,1.551-1.19,2.439.366,3.39-2.182,3.589-.494.039-1.886.193-2.462.318-1.1.237-1.173.457-1.481,1.512-.46,1.572-.836,3.024-1.2,4.574l-4.489.214A17.129,17.129,0,0,0,8.554,44.5c0-.855,0-1.711,0-2.566.987-.661,17.35-17.244,19.506-19.4,3.394-3.394,2.651-2.712,2-5.31C28.21,9.9,34.053,3.454,39.55,3.454H41.9c2.2,0,5.493,1.62,6.414,2.993a7.917,7.917,0,0,0-2.138,1.069c-5.746-3.041-9.834,1.3-9.834,4.916ZM26.3,14.143a15.9,15.9,0,0,0,.22,2.345c.39,3.4,1.13,1.541-2.946,5.617L13.095,32.58c-1.487,1.487-6.921,6.482-7.722,7.884-.594,1.039-.234,3.631-.235,4.9a30.381,30.381,0,0,0-.227,3.208c.163,2.18,1.984,1.917,3.642,1.917,1.393,0,6.157-.037,6.8-.686.532-.54,1.45-4.645,1.969-5.727,1.326,0,3.834-.056,4.669-.889.7-.7,1.23-3.192,1.317-4.241,1.271,0,3.21-.047,4.015-1.115a15.044,15.044,0,0,0,1.115-4.015c5.009-.111,4.6-2.773,8.123-5.13,0,2.985,2.211,7.46,3.459,9.368l2.9,3.512c.867.876,3.264,2.36,3.688,2.939-.689,1.028-8.551,8.107-8.551,8.978,0,2.968,2.438,2.138,7.482,2.138V67.157a12.786,12.786,0,0,1-2.09-.476c-.652-.162-1.448-.145-2.272-.294-3-.54-9.79,1.278-12.74,2.693a2.864,2.864,0,0,0-.6-1.681c-.915-.926-1.839-.561-3.245-.453l-5.943.684C16.7,67.921,1.88,69.293.943,69.809a1.928,1.928,0,0,0-.9,2.213C.816,76.9,1.15,81.948,1.877,86.873L3.591,101.05c.211,1.2.035,2.243.729,3.046.805.933,1.127.574,2.311.476,1.142-.094,1.953-.157,3.076-.346l11.881-1.373c.772-.059,2.067-.324,2.8-.405,1.346-.149,6.353-.37,7.206-1.13,1.092-.973.555-2.334.429-3.586l8.593,2.347a119.4,119.4,0,0,1,12.27,4.19c6.028,2.367,8.785,3.506,15.947,3.506,6.255,0,11.092-2.411,16.275-4.461,1.753-.693,3.2-1.373,4.977-2.077a61.2,61.2,0,0,0,9.4-4.491c3.09-1.887,6.112-3.979,6.112-8a6.864,6.864,0,0,0-6.841-6.841H96.411V55.614c1.391,0,5.926.421,6.848-.42,1.277-1.164-.217-2.777-.951-3.766l-2.939-3.9c-.494-.657-1.035-1.323-1.461-1.959V29.747c.008-1.866-.113-3.42-1.924-3.42-12.568,0-11.33-1.458-11.33,6.414l-1.338-1.016a36.718,36.718,0,0,0-4.006-3.687c.9-3.854-.4-9.118-1.922-12.187a21.558,21.558,0,0,0-7.269-8.122A21.788,21.788,0,0,0,54.6,4.391c-4.819.84-1.784.708-5.853-2.007a14.714,14.714,0,0,0-16.8.513,6.939,6.939,0,0,0-.671.611L29.156,5.673a15.069,15.069,0,0,0-2.861,8.469Z" transform="translate(0.002 0.003)" fill="#900" fill-rule="evenodd"/>
    </g>
  </g>
</svg>
