<svg xmlns="http://www.w3.org/2000/svg" width="24" height="22.559" viewBox="0 0 24 22.559">
  <path id="Caminho_48" data-name="Caminho 48" d="M11.968,16.092c-.619,0-1.158.108-1.158.874v3.8h2.231v-3.8c0-.792-.457-.874-1.076-.874Zm.6-15.9,2.121,1.678V.885a.893.893,0,0,1,.26-.633A.878.878,0,0,1,15.57-.01h3.27a.878.878,0,0,1,.626.263.9.9,0,0,1,.258.633V5.859L23.67,8.983a.895.895,0,0,1,.152,1.249.87.87,0,0,1-.307.251.733.733,0,0,1-.3.089l-2.248,0v7.95c0,.218,0,.408.007.593.026,1.254.047,2.22-1.125,3.03a2.568,2.568,0,0,1-.591.288,1.831,1.831,0,0,1-.579.11H5.471A2.059,2.059,0,0,1,4.376,22.2a2.754,2.754,0,0,1-.879-.9,2.184,2.184,0,0,1-.237-.572,2.88,2.88,0,0,1-.075-.729V10.582H.9a.882.882,0,0,1-.626-.263.9.9,0,0,1-.26-.633.966.966,0,0,1,.4-.748L11.469.185A.869.869,0,0,1,12.017,0a.881.881,0,0,1,.548.2Zm6.628,10.385H4.953v9.312a.781.781,0,0,0,.3.724,1.406,1.406,0,0,0,.731.152l3.054,0V16.612a2.094,2.094,0,0,1,.2-.82,2.667,2.667,0,0,1,.511-.766,2.846,2.846,0,0,1,2.4-.72l.377,0a2.284,2.284,0,0,1,1.566.724,2.331,2.331,0,0,1,.72,1.58v4.151h3.511a.873.873,0,0,0,.645-.223.89.89,0,0,0,.22-.652V10.579ZM15.022,4.4,12.01,2.015,3.451,8.791H20.57L18.352,7.035a.9.9,0,0,1-.4-.748V1.776h-1.5V3.785a.805.805,0,0,1-.776.8.85.85,0,0,1-.654-.185Z" transform="translate(-0.01 0.01)" fill="#900" fill-rule="evenodd"/>
</svg>
