<?xml version="1.0" encoding="UTF-8"?>
<!DOCTYPE svg PUBLIC "-//W3C//DTD SVG 1.1//EN" "http://www.w3.org/Graphics/SVG/1.1/DTD/svg11.dtd">
<!-- Creator: CorelDRAW 2018 (64 Bit Versão de avaliação) -->
<svg xmlns="http://www.w3.org/2000/svg" xml:space="preserve" width="3.3866mm" height="3.3867mm" version="1.1" style="shape-rendering:geometricPrecision; text-rendering:geometricPrecision; image-rendering:optimizeQuality; fill-rule:evenodd; clip-rule:evenodd"
viewBox="0 0 5.87 5.87"
 xmlns:xlink="http://www.w3.org/1999/xlink">
 <defs>
  <style type="text/css">
   <![CDATA[
    .fil0 {fill:#990000;fill-rule:nonzero}
   ]]>
  </style>
 </defs>
 <g id="Camada_x0020_1">
  <metadata id="CorelCorpID_0Corel-Layer"/>
  <path class="fil0" d="M1.36 0l3.15 0c0.18,0 0.36,0.04 0.52,0.1 0.17,0.07 0.32,0.17 0.44,0.3 0.13,0.13 0.23,0.28 0.3,0.44 0.07,0.16 0.1,0.34 0.1,0.52l-0 3.15c0,0.18 -0.04,0.36 -0.1,0.52 -0.07,0.17 -0.17,0.32 -0.3,0.44 -0.13,0.13 -0.28,0.23 -0.44,0.3 -0.16,0.07 -0.34,0.1 -0.52,0.1l-3.15 -0c-0.18,0 -0.36,-0.04 -0.52,-0.1 -0.17,-0.07 -0.32,-0.17 -0.44,-0.3 -0.13,-0.13 -0.23,-0.28 -0.3,-0.44 -0.07,-0.16 -0.1,-0.34 -0.1,-0.52l0 -3.15c-0,-0.18 0.04,-0.36 0.1,-0.52 0.07,-0.17 0.17,-0.32 0.3,-0.44 0.13,-0.13 0.28,-0.23 0.44,-0.3 0.16,-0.07 0.34,-0.1 0.52,-0.1zm3.43 1.08c0.07,0.07 0.12,0.17 0.12,0.28 0,0.11 -0.04,0.21 -0.12,0.28 -0.07,0.07 -0.17,0.12 -0.28,0.12 -0.11,0 -0.21,-0.05 -0.28,-0.12 -0.07,-0.07 -0.12,-0.17 -0.12,-0.28 0,-0.11 0.05,-0.21 0.12,-0.28 0.07,-0.07 0.17,-0.12 0.28,-0.12 0.11,0 0.21,0.04 0.28,0.12zm-0.87 1.86c0,-0.13 -0.03,-0.26 -0.07,-0.38 -0.05,-0.12 -0.12,-0.23 -0.21,-0.32 -0.09,-0.09 -0.2,-0.16 -0.32,-0.21 -0.12,-0.05 -0.24,-0.07 -0.38,-0.07 -0.13,0 -0.26,0.03 -0.38,0.07 -0.12,0.05 -0.23,0.12 -0.32,0.21 -0.09,0.09 -0.16,0.2 -0.21,0.32 -0.05,0.12 -0.07,0.24 -0.07,0.38 0,0.13 0.03,0.26 0.07,0.38 0.05,0.12 0.12,0.23 0.21,0.32 0.09,0.09 0.2,0.16 0.32,0.21 0.12,0.05 0.24,0.07 0.38,0.07 0.13,0 0.26,-0.03 0.38,-0.07 0.12,-0.05 0.23,-0.12 0.32,-0.21 0.09,-0.09 0.16,-0.2 0.21,-0.32 0.05,-0.12 0.07,-0.24 0.07,-0.38zm0.08 -1.07c0.14,0.14 0.25,0.31 0.33,0.49 0.07,0.18 0.11,0.37 0.11,0.58 0,0.2 -0.04,0.4 -0.11,0.58 -0.08,0.18 -0.19,0.35 -0.33,0.49 -0.14,0.14 -0.31,0.25 -0.49,0.33 -0.18,0.07 -0.37,0.11 -0.58,0.11 -0.2,0 -0.4,-0.04 -0.58,-0.11 -0.18,-0.08 -0.35,-0.19 -0.49,-0.33 -0.14,-0.14 -0.25,-0.31 -0.33,-0.49 -0.07,-0.18 -0.11,-0.37 -0.11,-0.58 0,-0.2 0.04,-0.4 0.11,-0.58 0.08,-0.18 0.19,-0.35 0.33,-0.49 0.14,-0.14 0.31,-0.25 0.49,-0.33 0.18,-0.07 0.37,-0.11 0.58,-0.11 0.2,0 0.4,0.04 0.58,0.11 0.18,0.08 0.35,0.19 0.49,0.33zm0.51 -1.35l-3.15 0c-0.11,0 -0.22,0.02 -0.32,0.06 -0.1,0.04 -0.2,0.1 -0.27,0.18 -0.08,0.08 -0.14,0.17 -0.18,0.27 -0.04,0.1 -0.06,0.21 -0.06,0.32l0 3.15c0,0.11 0.02,0.22 0.06,0.32 0.04,0.1 0.1,0.2 0.18,0.27 0.08,0.08 0.17,0.14 0.27,0.18 0.1,0.04 0.21,0.06 0.32,0.06l3.15 -0c0.11,-0 0.22,-0.02 0.32,-0.06 0.1,-0.04 0.2,-0.1 0.27,-0.18 0.08,-0.08 0.14,-0.17 0.18,-0.27 0.04,-0.1 0.06,-0.21 0.06,-0.32l0 -3.15c-0,-0.11 -0.02,-0.22 -0.06,-0.32 -0.04,-0.1 -0.1,-0.2 -0.18,-0.27 -0.08,-0.08 -0.17,-0.14 -0.27,-0.18 -0.1,-0.04 -0.21,-0.06 -0.32,-0.06z"/>
 </g>
</svg>
