<svg xmlns="http://www.w3.org/2000/svg" width="24" height="26.087" viewBox="0 0 24 26.087">
  <path id="Caminho_176" data-name="Caminho 176" d="M12,0a8.047,8.047,0,0,1,5.719,2.376l.059.064a8.117,8.117,0,0,1,2.312,5.678l-.014.433c-.164,3.234-2.157,6.727-4.374,9.91h3.457a1.072,1.072,0,0,1,.871.461l3.731,5.427a1.067,1.067,0,0,1-.825,1.738H1.056a1.082,1.082,0,0,1-.6-.192,1.061,1.061,0,0,1-.269-1.478L3.916,19a1.062,1.062,0,0,1,.921-.534H8.294c-2.212-3.183-4.21-6.677-4.374-9.91l-.014-.433A8.1,8.1,0,0,1,6.273,2.385l0,0A8.044,8.044,0,0,1,11.993,0Zm.848,22.361a1.057,1.057,0,0,1-1.482.214L9.831,20.6H5.393L3.081,23.957H20.918L18.605,20.6H14.168l-1.318,1.77ZM12,19.953c2.344-3.174,5.765-7.7,5.956-11.516,0-.109.009-.214,0-.324a5.976,5.976,0,0,0-1.7-4.182l-.05-.05a5.957,5.957,0,0,0-8.433,0l0,0A5.977,5.977,0,0,0,6.032,8.113h0l.009.324c.2,3.822,3.607,8.332,5.956,11.516ZM12,4.406a3.709,3.709,0,0,1,2.613,6.326l0,0A3.7,3.7,0,0,1,9.384,5.5l0,0A3.678,3.678,0,0,1,12,4.406ZM13.11,7a1.571,1.571,0,1,0,0,2.235l0,0a1.58,1.58,0,0,0,0-2.226Z" transform="translate(0.004)" fill="gray"/>
</svg>
