<svg xmlns="http://www.w3.org/2000/svg" width="22.08" height="24" viewBox="0 0 22.08 24">
  <path id="Caminho_47" data-name="Caminho 47" d="M11.037,0A7.4,7.4,0,0,1,16.3,2.186l.055.059A7.467,7.467,0,0,1,18.48,7.469l-.013.4c-.151,2.975-1.985,6.189-4.024,9.117h3.18a.986.986,0,0,1,.8.424L21.858,22.4A.982.982,0,0,1,21.1,24H.971a1,1,0,0,1-.554-.176A.977.977,0,0,1,.17,22.464L3.6,17.476a.977.977,0,0,1,.848-.491H7.63C5.6,14.056,3.757,10.842,3.606,7.867l-.013-.4A7.45,7.45,0,0,1,5.771,2.194l0,0A7.4,7.4,0,0,1,11.033,0Zm.78,20.572a.972.972,0,0,1-1.364.2l-1.41-1.821H4.961L2.834,22.041h16.41l-2.127-3.092H13.034l-1.213,1.628Zm-.78-2.215c2.157-2.92,5.3-7.083,5.48-10.594,0-.1.008-.2,0-.3A5.5,5.5,0,0,0,14.96,3.617l-.046-.046a5.48,5.48,0,0,0-7.758,0l0,0a5.5,5.5,0,0,0-1.6,3.894h0l.008.3c.18,3.516,3.319,7.666,5.48,10.594Zm0-14.3a3.412,3.412,0,0,1,2.4,5.82l0,0a3.4,3.4,0,0,1-4.8-4.821l0,0a3.384,3.384,0,0,1,2.4-1Zm1.024,2.387a1.445,1.445,0,1,0,0,2.056l0,0a1.454,1.454,0,0,0,0-2.048Z" transform="translate(0.004)" fill="#900"/>
</svg>
