<svg xmlns="http://www.w3.org/2000/svg" xmlns:xlink="http://www.w3.org/1999/xlink" width="150" height="150" viewBox="0 0 150 150">
  <defs>
    <clipPath id="clip-path">
      <rect id="Ret칙ngulo_93" data-name="Ret칙ngulo 93" width="150" height="150" transform="translate(512 1230)" fill="#fff" stroke="#707070" stroke-width="1"/>
    </clipPath>
  </defs>
  <g id="Grupo_de_m치scara_21" data-name="Grupo de m치scara 21" transform="translate(-512 -1230)" clip-path="url(#clip-path)">
    <g id="Camada_x0020_1" transform="translate(523.739 1230.001)">
      <g id="_2213290583920">
        <path id="Caminho_192" data-name="Caminho 192" d="M87.8,75.162l.265,10.293L64.839,108.682,62.7,98.274ZM63.264,140.206c24.767,0,44.843,2.193,44.843,4.9S88.029,150,63.264,150s-44.843-2.193-44.843-4.9S38.5,140.206,63.264,140.206ZM28.876,63.836,51.223,86.488l40.1-40.1c2.5-2.5,4.836-4.884,7.027-7.22-.248.018-.5.028-.753.028a9.8,9.8,0,1,1,9.765-10.566A87.437,87.437,0,0,0,119.243,7.592l-5.267-3.446L100.2,4.759,81.529,11.8,28.879,63.836ZM5.637,62.794,15.56,64.3,41.425,38.434l-15.61,4.181L5.637,62.794Z" fill="#f8d6d6" fill-rule="evenodd"/>
        <path id="Caminho_193" data-name="Caminho 193" d="M46.546,96.814a3.469,3.469,0,1,1,4.906,4.906L38.136,115.036a3.469,3.469,0,0,1-4.906-4.906Zm13.031,2.743L27.441,67.42H3.471a3.471,3.471,0,0,1-2.433-5.947L21.961,40.549a19.432,19.432,0,0,1,10.073-4.991A51.429,51.429,0,0,1,42.4,34.713H53.2L71.066,16.85c8.45-8.45,16.795-13.1,25.423-15.29C105.016-.6,113.7-.3,122.969,1.138a3.46,3.46,0,0,1,2.913,3.091c.785,8.217,1.168,16.712-.78,25.393-1.981,8.818-6.317,17.663-14.959,26.305L92.28,73.789v10.8a51.429,51.429,0,0,1-.845,10.366,19.432,19.432,0,0,1-4.991,10.073L65.519,125.955a3.471,3.471,0,0,1-5.947-2.433V99.552ZM27.441,60.478,46.264,41.655H42.4a45.789,45.789,0,0,0-8.983.683,12.74,12.74,0,0,0-6.549,3.118L11.848,60.478H27.441Zm57.9,20.253L66.52,99.554v15.592l15.022-15.022a12.721,12.721,0,0,0,3.118-6.549,45.8,45.8,0,0,0,.683-8.983V80.731ZM33.785,63.949,63.049,93.213,86.336,69.926l.048-.048L105.241,51.02c7.607-7.607,11.4-15.3,13.114-22.917,1.535-6.837,1.43-13.744.885-20.514-7.4-.958-14.347-1.008-21.066.7-7.427,1.883-14.7,5.977-22.194,13.471L57.122,40.615l-.048.048L33.787,63.949Zm63.809-47.2a12.653,12.653,0,1,1-8.948,3.706,12.624,12.624,0,0,1,8.948-3.706Zm4.039,8.615a5.711,5.711,0,1,0,1.673,4.039A5.694,5.694,0,0,0,101.633,25.36Zm-76.438,50.1A3.469,3.469,0,1,1,30.1,80.369L16.785,93.685a3.469,3.469,0,0,1-4.906-4.906ZM35.911,86.178a3.469,3.469,0,0,1,4.906,4.906L19.391,112.511a3.469,3.469,0,0,1-4.906-4.906Z" fill="#900"/>
      </g>
    </g>
  </g>
</svg>
