<svg xmlns="http://www.w3.org/2000/svg" width="24" height="24" viewBox="0 0 24 24">
  <path id="Caminho_177" data-name="Caminho 177" d="M6.6.86,9.462,6.575a1.558,1.558,0,0,1-.708,2.091l-.715.351A23.566,23.566,0,0,0,15.1,16.381l.576-.881a1.571,1.571,0,0,1,2.167-.466l5.428,3.431a1.551,1.551,0,0,1,.482,2.149l-1.043,1.619a1.593,1.593,0,0,1-2.181.48C11.184,16.8,7.646,14.3,2.028,3.116a1.556,1.556,0,0,1,.708-2.091L4.479.165A1.577,1.577,0,0,1,6.588.86Zm4.735.695a11.335,11.335,0,0,1,8.018,3.288,11.176,11.176,0,0,1,2.772,11.4l-1.379-.874a9.243,9.243,0,0,0,.357-2.593,9.588,9.588,0,0,0-2.853-6.833,9.817,9.817,0,0,0-6.9-2.829,9.594,9.594,0,0,0-2.087.222L8.536,1.906a11.337,11.337,0,0,1,2.809-.351Zm6.128,20.678A11.443,11.443,0,0,1,3.319,20.714,11.141,11.141,0,0,1,2.2,6.139c.285.537.569,1.053.846,1.533A9.653,9.653,0,0,0,4.428,19.618a9.837,9.837,0,0,0,11.585,1.655c.46.322.941.63,1.459.96Z" transform="translate(0 -0.002)" fill="gray" fill-rule="evenodd"/>
</svg>
