<svg xmlns="http://www.w3.org/2000/svg" width="43.626" height="43.626" viewBox="0 0 43.626 43.626">
  <path id="Caminho_177" data-name="Caminho 177" d="M11.988,1.562,17.2,11.951a2.832,2.832,0,0,1-1.286,3.8l-1.3.638A42.838,42.838,0,0,0,27.451,29.775l1.048-1.6a2.857,2.857,0,0,1,3.939-.846L42.3,33.563a2.82,2.82,0,0,1,.875,3.906l-1.9,2.942a2.9,2.9,0,0,1-3.965.872C20.33,30.53,13.9,25.986,3.687,5.663a2.829,2.829,0,0,1,1.286-3.8L8.142.3a2.866,2.866,0,0,1,3.833,1.263Zm8.607,1.263A20.6,20.6,0,0,1,35.169,8.8a20.315,20.315,0,0,1,5.039,20.727L37.7,27.939a16.8,16.8,0,0,0,.65-4.713,17.428,17.428,0,0,0-5.185-12.42A17.846,17.846,0,0,0,20.621,5.663a17.439,17.439,0,0,0-3.793.4l-1.313-2.6a20.608,20.608,0,0,1,5.106-.638Zm11.14,37.587a20.8,20.8,0,0,1-25.7-2.76A20.252,20.252,0,0,1,3.992,11.157c.517.976,1.034,1.914,1.538,2.786A17.547,17.547,0,0,0,8.05,35.66a17.881,17.881,0,0,0,21.059,3.007c.835.586,1.711,1.146,2.652,1.745Z" transform="translate(0 -0.002)" fill="#900" fill-rule="evenodd"/>
</svg>
