<svg xmlns="http://www.w3.org/2000/svg" xmlns:xlink="http://www.w3.org/1999/xlink" width="150" height="150" viewBox="0 0 150 150">
  <defs>
    <clipPath id="clip-path">
      <rect id="Ret칙ngulo_95" data-name="Ret칙ngulo 95" width="150" height="150" transform="translate(885 1230)" fill="#fff" stroke="#707070" stroke-width="1"/>
    </clipPath>
  </defs>
  <g id="Grupo_de_m치scara_22" data-name="Grupo de m치scara 22" transform="translate(-885 -1230)" clip-path="url(#clip-path)">
    <g id="Camada_x0020_1" transform="translate(884.999 1238.393)">
      <g id="_2213290559120">
        <path id="Caminho_194" data-name="Caminho 194" d="M47.313,4.029l6.7-1.02L33.325,51.678,21.376,54.593l-6.12,8.451L14.382,74.7l6.412,9.617,7.578,3.06L42.942,83.59,49.5,73.536l.292-8.451,15.446-37.3,3.352,10.055,12.823-1.166,5.537-11.511-3.5-10.491,4.663-6.995,17.048,48.814-5.392,8.743,1.748,13.406,8.6,5.828,11.8,2.768,9.908-7.868,3.788-9.471h11.366L143.34,84.463l-9.035,9.326a8.057,8.057,0,0,1-2.623,1.6L121.191,98.16,107.639,95.1l-9.908-5.392-6.266-9.617L85.782,55.466l-21.711.292L56.493,82.57,46.876,93.207l-13.115,5.1-12.823-1.02-9.617-6.995-6.7-11.366L3.162,64.354,7.242,52.26,28.371,21.514,40.9,13.791l6.412-9.763ZM75,123.884c23.579,0,42.694,2.088,42.694,4.663S98.576,133.21,75,133.21,32.3,131.122,32.3,128.547,51.417,123.884,75,123.884Z" fill="#f8d6d6" fill-rule="evenodd"/>
        <path id="Caminho_195" data-name="Caminho 195" d="M118.2,48.157a21.229,21.229,0,1,0,15.009,6.218A21.157,21.157,0,0,0,118.2,48.157ZM75,52.094h7.286a7.969,7.969,0,0,1,5.678,2.157,10.027,10.027,0,0,1,2.8,5.444l3.205,15.738a23.323,23.323,0,0,0,8.858,13.577A26.46,26.46,0,0,0,119,94.353,25.012,25.012,0,0,0,136.5,87.24a23.426,23.426,0,0,0,6.888-16.977,32.411,32.411,0,0,0-1.4-9.175,33.486,33.486,0,0,0-3.886-8.557L124.306,31.267a42.474,42.474,0,0,0-5.43-6.978,15.022,15.022,0,0,0-4.89-3.424,16.838,16.838,0,0,1-5.32-3.071,16.958,16.958,0,0,1-3.313-4.468l-1.583-2.77a7.8,7.8,0,0,0-5.035-3.676,10.182,10.182,0,0,0-7.142.848,7.79,7.79,0,0,0-3.164,4.029,8.075,8.075,0,0,0-.238,5.226c.307,1.014.68,2.146,1.058,3.292.329,1,.66,2,1.136,3.569l.558,1.836L89.622,27.07a13.323,13.323,0,0,0-2.258,3.265,13.523,13.523,0,0,0-1.226,3.8,7.591,7.591,0,0,1-1.831,4.142,6.765,6.765,0,0,1-5.271,2.06H70.951a6.763,6.763,0,0,1-5.271-2.06,7.587,7.587,0,0,1-1.831-4.142,13.564,13.564,0,0,0-1.226-3.8,13.3,13.3,0,0,0-2.258-3.265l-1.319-1.391.558-1.836c.476-1.57.807-2.571,1.136-3.569.378-1.146.751-2.278,1.058-3.292a8.067,8.067,0,0,0-.238-5.226A7.79,7.79,0,0,0,58.4,7.727a10.176,10.176,0,0,0-7.142-.848,7.8,7.8,0,0,0-5.035,3.676l-1.583,2.77a16.964,16.964,0,0,1-3.313,4.468A16.853,16.853,0,0,1,36,20.864a15,15,0,0,0-4.89,3.424,42.528,42.528,0,0,0-5.43,6.978L11.89,52.531A33.442,33.442,0,0,0,8,61.088a32.425,32.425,0,0,0-1.4,9.175A23.428,23.428,0,0,0,13.492,87.24a25.01,25.01,0,0,0,17.494,7.113A26.46,26.46,0,0,0,47.169,89.01a23.317,23.317,0,0,0,8.858-13.577L59.232,59.7a10.031,10.031,0,0,1,2.8-5.444A7.967,7.967,0,0,1,67.7,52.094h7.286ZM82.282,58.7H67.711a1.649,1.649,0,0,0-1.16.35,3.735,3.735,0,0,0-.858,1.958L62.488,76.75a29.957,29.957,0,0,1-11.31,17.5,33.023,33.023,0,0,1-20.186,6.711,31.675,31.675,0,0,1-22.14-9.05A29.9,29.9,0,0,1,0,70.263,39.072,39.072,0,0,1,1.685,59.2,40.114,40.114,0,0,1,6.372,48.943L20.164,27.678a48.863,48.863,0,0,1,6.307-8.062,21.425,21.425,0,0,1,7.084-4.869,11,11,0,0,0,3.332-1.832,11.718,11.718,0,0,0,2.023-2.868l1.583-2.77a14.311,14.311,0,0,1,9.217-6.8A16.919,16.919,0,0,1,61.578,1.946a14.609,14.609,0,0,1,6.159,7.489,14.586,14.586,0,0,1,.392,9.46c-.3.995-.7,2.213-1.109,3.447l-.565,1.719a20.259,20.259,0,0,1,3.907,9.05,2.784,2.784,0,0,0,.153.683c.032.034.084-.056.443-.056h8.086c.359,0,.411.092.443.056a2.85,2.85,0,0,0,.153-.683,20.259,20.259,0,0,1,3.907-9.05l-.565-1.719c-.406-1.234-.809-2.453-1.109-3.447a14.594,14.594,0,0,1,.392-9.46,14.6,14.6,0,0,1,6.159-7.489A16.919,16.919,0,0,1,100.292.478a14.311,14.311,0,0,1,9.217,6.8l1.583,2.77a11.684,11.684,0,0,0,2.023,2.868,10.978,10.978,0,0,0,3.332,1.832,21.438,21.438,0,0,1,7.084,4.869,48.862,48.862,0,0,1,6.307,8.062L143.63,48.943A40.094,40.094,0,0,1,148.318,59.2,39.078,39.078,0,0,1,150,70.263a29.9,29.9,0,0,1-8.85,21.649,31.675,31.675,0,0,1-22.14,9.05,33.023,33.023,0,0,1-20.186-6.711,29.951,29.951,0,0,1-11.31-17.5L84.31,61.012a3.745,3.745,0,0,0-.858-1.958,1.646,1.646,0,0,0-1.16-.35ZM31.794,48.157a21.229,21.229,0,1,1-15.009,6.218A21.157,21.157,0,0,1,31.794,48.157Zm10.337,10.89a14.621,14.621,0,1,0,4.281,10.337,14.573,14.573,0,0,0-4.281-10.337Zm65.732,0a14.621,14.621,0,1,1-4.281,10.337,14.573,14.573,0,0,1,4.281-10.337Z" fill="#900"/>
      </g>
    </g>
  </g>
</svg>
