<svg xmlns="http://www.w3.org/2000/svg" xmlns:xlink="http://www.w3.org/1999/xlink" width="150" height="150" viewBox="0 0 150 150">
  <defs>
    <clipPath id="clip-path">
      <rect id="Ret칙ngulo_97" data-name="Ret칙ngulo 97" width="150" height="150" transform="translate(1265 1230)" fill="#fff" stroke="#707070" stroke-width="1"/>
    </clipPath>
  </defs>
  <g id="Grupo_de_m치scara_23" data-name="Grupo de m치scara 23" transform="translate(-1265 -1230)" clip-path="url(#clip-path)">
    <g id="Camada_x0020_1" transform="translate(1269.188 1230)">
      <g id="_2213289277312">
        <path id="Caminho_196" data-name="Caminho 196" d="M3.816,37.176,32.1,6.262l3.618,40.122L103.135,47.7l33.544-9.537-66.1,70.706L3.816,37.176Zm67,102.3c26.608,0,48.179,2.356,48.179,5.262S97.42,150,70.812,150s-48.179-2.356-48.179-5.262S44.2,139.477,70.812,139.477Z" fill="#f8d6d6" fill-rule="evenodd"/>
        <path id="Caminho_197" data-name="Caminho 197" d="M49.245,7.458l21.567,9.779L92.378,7.458H49.245ZM99.467,51.033H42.156l28.656,50.718ZM70.812,43.575H94.569L70.812,25.953,47.054,43.575ZM89.483,83.792,125.6,45.022l-17.26,5.4Zm41.965-48.4-18.89-22.405-2.526,29.1,21.416-6.7Zm9.212-.619a3.726,3.726,0,0,1-.124,5.13l-67,71.926a3.7,3.7,0,0,1-5.446,0L1.087,39.9a3.726,3.726,0,0,1-.124-5.13L29,1.519a3.722,3.722,0,0,1,3-1.519h77.613a3.722,3.722,0,0,1,3,1.519l28.038,33.254ZM78.1,22.1,102.7,40.347l2.656-30.6L78.1,22.1ZM29.066,12.987,10.176,35.392l21.416,6.7-2.526-29.1ZM16.025,45.023,52.14,83.793,33.286,50.423l-17.26-5.4Zm22.9-4.676L63.519,22.1,36.27,9.75l2.656,30.6Z" fill="#900"/>
      </g>
    </g>
  </g>
</svg>
