<svg xmlns="http://www.w3.org/2000/svg" width="43.626" height="43.626" viewBox="0 0 43.626 43.626">
  <path id="Caminho_178" data-name="Caminho 178" d="M42.008,29.52A21.4,21.4,0,0,1,30.352,41.072a21.62,21.62,0,0,1-8.235,1.616,20.917,20.917,0,0,1-2.745-.172,20.869,20.869,0,0,1-2.652-.49,21.58,21.58,0,0,1-2.572-.835h0A21.722,21.722,0,0,1,11.7,40.039h0l-.159-.093L.981,43.3,0,43.616l.332-.98L3.753,32.527l-.106-.159h0A24.813,24.813,0,0,1,2.307,29.8a21.306,21.306,0,0,1-.968-2.716,21.663,21.663,0,0,1-.583-2.848,21,21,0,0,1-.2-2.888,21.157,21.157,0,0,1,6.312-15.1A21.664,21.664,0,0,1,37.327,6.23a21.248,21.248,0,0,1,4.668,23.264Zm-8.8-3.153c-.133-.225-.491-.358-1.034-.623s-3.182-1.55-3.686-1.735-.849-.265-1.207.265-1.392,1.735-1.711,2.093-.636.4-1.167.132a14.374,14.374,0,0,1-4.336-2.65,16.78,16.78,0,0,1-3-3.7c-.318-.53-.027-.821.239-1.086.252-.238.544-.623.809-.927a4.435,4.435,0,0,0,.544-.888.975.975,0,0,0-.04-.941c-.133-.265-1.207-2.888-1.658-3.961s-.888-.888-1.207-.888-.676-.04-1.034-.04a1.955,1.955,0,0,0-1.432.676A5.971,5.971,0,0,0,11.4,16.55a10.292,10.292,0,0,0,2.2,5.524c.278.358,3.726,5.922,9.189,8.055s5.476,1.431,6.458,1.338,3.182-1.285,3.633-2.53a4.725,4.725,0,0,0,.318-2.544ZM15.315,5.064A17.849,17.849,0,0,0,9.534,8.893,16.724,16.724,0,0,0,7.32,11.582a17.292,17.292,0,0,0-1.644,3.047,17,17,0,0,0-1.008,3.3,17.308,17.308,0,0,0-.345,3.431c0,.477.013.941.053,1.378.04.477.093.941.159,1.365a12.223,12.223,0,0,0,.278,1.351c.106.437.239.888.385,1.338.133.411.278.795.438,1.179s.332.768.53,1.166h0c.2.384.4.768.61,1.113.225.384.451.742.69,1.073h0l.146.212.318.45-.172.517-.08.252L5.954,37.84l5.4-1.709h0l.225-.066.477-.159.424.265.212.132c.318.2.663.4,1.021.583.332.172.69.358,1.074.53s.756.331,1.114.464h0c.4.146.769.278,1.127.384.424.132.849.238,1.26.331s.822.159,1.273.225c.424.066.862.106,1.286.146s.849.04,1.3.04a17.877,17.877,0,0,0,6.8-1.325,18.041,18.041,0,0,0,3.076-1.643,18.852,18.852,0,0,0,2.705-2.2,18.551,18.551,0,0,0,2.214-2.676,18.2,18.2,0,0,0,1.644-3.047,17,17,0,0,0,1.008-3.3,17.475,17.475,0,0,0-1.008-10.161,18.2,18.2,0,0,0-1.644-3.047h0a17.86,17.86,0,0,0-2.214-2.676A17.849,17.849,0,0,0,28.947,5.1a16.993,16.993,0,0,0-3.328-.994,17.559,17.559,0,0,0-3.474-.331,17.877,17.877,0,0,0-6.8,1.325Z" transform="translate(0 0.01)" fill="#900" fill-rule="evenodd"/>
</svg>
