<?xml version="1.0" encoding="UTF-8"?>
<!DOCTYPE svg PUBLIC "-//W3C//DTD SVG 1.1//EN" "http://www.w3.org/Graphics/SVG/1.1/DTD/svg11.dtd">
<!-- Creator: CorelDRAW 2018 (64 Bit Versão de avaliação) -->
<svg xmlns="http://www.w3.org/2000/svg" xml:space="preserve" width="16.9334mm" height="9.2542mm" version="1.1" style="shape-rendering:geometricPrecision; text-rendering:geometricPrecision; image-rendering:optimizeQuality; fill-rule:evenodd; clip-rule:evenodd"
viewBox="0 0 136.1 74.38"
 xmlns:xlink="http://www.w3.org/1999/xlink">
 <defs>
  <style type="text/css">
   <![CDATA[
    .fil0 {fill:white}
    .fil1 {fill:white;fill-rule:nonzero}
   ]]>
  </style>
 </defs>
 <g id="Camada_x0020_1">
  <metadata id="CorelCorpID_0Corel-Layer"/>
  <g id="_2733187561888">
   <path class="fil0" d="M24.65 0l-24.65 7.61 0 29.58 0 29.58 24.65 7.61 0 -37.19 0 -37.19zm6.74 37.75l0 -12.52 2.22 0 0 12.52 -2.22 0zm17.75 0l-2.22 0 0 -4.04 0.21 -5.56 -3.65 9.6 -1.59 0 -3.65 -9.6 0.23 5.56 0 4.04 -2.23 0 0 -12.52 1.89 0 1 0 3.56 9.53 3.55 -9.53 2.89 0 0 12.52zm12.57 -5.94c0,1.25 -0.22,2.33 -0.65,3.25 -0.43,0.92 -1.04,1.63 -1.83,2.12 -0.79,0.49 -1.69,0.74 -2.73,0.74 -1.02,0 -1.93,-0.25 -2.72,-0.74 -0.79,-0.49 -1.41,-1.2 -1.85,-2.13 -0.44,-0.92 -0.66,-2.01 -0.66,-3.25l0 -0.63c0,-1.24 0.22,-2.33 0.66,-3.25 0.44,-0.92 1.05,-1.63 1.84,-2.13 0.79,-0.5 1.69,-0.74 2.71,-0.74 1.03,0 1.94,0.25 2.73,0.74 0.79,0.49 1.4,1.2 1.83,2.12 0.43,0.93 0.65,2.01 0.65,3.26l0 0.63zm-2.24 -0.65c0,-1.38 -0.26,-2.44 -0.78,-3.17 -0.52,-0.73 -1.25,-1.1 -2.21,-1.1 -0.61,0 -1.14,0.16 -1.59,0.49 -0.45,0.33 -0.79,0.81 -1.03,1.45 -0.24,0.64 -0.36,1.41 -0.36,2.33l0 0.65c0,0.91 0.12,1.69 0.36,2.33 0.24,0.64 0.58,1.13 1.04,1.46 0.45,0.33 0.98,0.5 1.59,0.5 0.95,0 1.68,-0.37 2.2,-1.1 0.51,-0.73 0.77,-1.8 0.77,-3.18l0 -0.65zm-33.21 -23.56l14.46 0 0 15.48 -1.61 0 0 -13.99 -12.85 0 0 -1.48zm14.46 42.17l0 16.99 -14.46 0 0 -1.48 12.85 0 0 -15.51 1.61 0zm-20.13 -15.12c0.54,0.07 0.97,0.69 0.97,1.4 0,0.52 -0.24,0.94 -0.59,1.1l0.49 2.47 -0.88 -0.11 -0.88 -0.11 0.49 -2.35c-0.34,-0.24 -0.59,-0.72 -0.59,-1.24 0,-0.7 0.44,-1.22 0.97,-1.15z"/>
   <path class="fil1" d="M76.9 27.03l-3.9 0 0 10.72 -2.22 0 0 -10.72 -3.85 0 0 -1.8 6.07 0 3.9 0 0 1.8zm-39.57 20.42l-0.51 0 0 -2.67 0.05 -2.71 -2.27 5.38 -0.4 0 -2.26 -5.36 0.05 2.69 0 2.67 -0.52 0 0 -6.1 0.46 0 0.22 0 2.25 5.38 2.25 -5.38 0.69 0 0 6.1zm1.65 -2.24l0 0.1c0,0.33 0.07,0.64 0.2,0.91 0.13,0.27 0.31,0.49 0.55,0.65 0.23,0.16 0.5,0.24 0.8,0.24 0.27,0 0.51,-0.05 0.72,-0.15 0.21,-0.1 0.39,-0.26 0.55,-0.47l0.32 0.24c-0.17,0.24 -0.38,0.44 -0.64,0.58 -0.26,0.15 -0.59,0.22 -0.97,0.22 -0.39,0 -0.74,-0.1 -1.04,-0.29 -0.31,-0.19 -0.55,-0.45 -0.72,-0.79 -0.17,-0.34 -0.26,-0.72 -0.26,-1.15l0 -0.18c0,-0.45 0.09,-0.85 0.27,-1.2 0.18,-0.35 0.41,-0.62 0.71,-0.81 0.3,-0.19 0.62,-0.29 0.96,-0.29 0.37,0 0.7,0.09 0.97,0.26 0.27,0.18 0.48,0.42 0.62,0.73 0.14,0.31 0.21,0.67 0.21,1.08l0 0.3 -3.23 0zm1.44 -1.95c-0.25,0 -0.48,0.06 -0.68,0.19 -0.2,0.13 -0.37,0.3 -0.5,0.53 -0.13,0.23 -0.21,0.5 -0.24,0.8l2.71 0 0 -0.05c-0,-0.26 -0.06,-0.51 -0.16,-0.73 -0.1,-0.22 -0.25,-0.4 -0.44,-0.54 -0.19,-0.13 -0.42,-0.2 -0.69,-0.2zm6.22 -2.24l0 6.43 -0.47 0 -0.03 -0.61c-0.15,0.22 -0.35,0.39 -0.58,0.51 -0.24,0.12 -0.51,0.18 -0.83,0.18 -0.35,0 -0.66,-0.1 -0.92,-0.29 -0.26,-0.19 -0.47,-0.47 -0.61,-0.81 -0.14,-0.35 -0.21,-0.75 -0.21,-1.2l0 -0.09c0,-0.47 0.07,-0.87 0.21,-1.22 0.14,-0.35 0.34,-0.62 0.61,-0.8 0.26,-0.19 0.57,-0.28 0.93,-0.28 0.31,0 0.59,0.06 0.82,0.19 0.23,0.12 0.43,0.3 0.58,0.53l0 -2.53 0.5 0zm-1.81 6.08c0.32,0 0.59,-0.07 0.81,-0.22 0.22,-0.15 0.38,-0.35 0.5,-0.6l0 -2.14c-0.11,-0.26 -0.27,-0.47 -0.48,-0.63 -0.21,-0.16 -0.48,-0.24 -0.82,-0.24 -0.3,0 -0.54,0.08 -0.74,0.24 -0.2,0.16 -0.35,0.38 -0.45,0.66 -0.1,0.28 -0.15,0.6 -0.15,0.97l0 0.09c0,0.36 0.05,0.68 0.15,0.96 0.1,0.28 0.25,0.5 0.44,0.66 0.2,0.16 0.45,0.24 0.74,0.24zm3.44 -5.83c0.11,0 0.19,0.03 0.25,0.1 0.06,0.06 0.09,0.15 0.09,0.24 0,0.09 -0.03,0.17 -0.09,0.24 -0.06,0.06 -0.15,0.09 -0.25,0.09 -0.1,0 -0.19,-0.03 -0.25,-0.09 -0.06,-0.06 -0.09,-0.14 -0.09,-0.24 0,-0.1 0.03,-0.18 0.09,-0.24 0.06,-0.06 0.15,-0.1 0.25,-0.1zm-0.25 6.18l0 -4.53 0.5 0 0 4.53 -0.5 0zm5.13 -0.95c0,0.17 0.01,0.33 0.04,0.5 0.02,0.16 0.06,0.3 0.1,0.4l0 0.05 -0.54 0c-0.05,-0.15 -0.09,-0.36 -0.1,-0.63 -0.17,0.21 -0.38,0.38 -0.64,0.52 -0.26,0.13 -0.56,0.2 -0.89,0.2 -0.29,0 -0.54,-0.06 -0.77,-0.17 -0.22,-0.11 -0.39,-0.26 -0.51,-0.46 -0.12,-0.2 -0.18,-0.42 -0.18,-0.66 0,-0.29 0.08,-0.55 0.25,-0.76 0.17,-0.22 0.4,-0.38 0.72,-0.5 0.31,-0.12 0.68,-0.17 1.1,-0.17l0.93 0 0 -0.51c0,-0.33 -0.1,-0.58 -0.3,-0.77 -0.2,-0.19 -0.49,-0.28 -0.86,-0.28 -0.23,0 -0.44,0.04 -0.62,0.12 -0.19,0.08 -0.33,0.19 -0.43,0.33 -0.11,0.14 -0.16,0.29 -0.16,0.46l-0.5 -0c0,-0.23 0.07,-0.44 0.22,-0.65 0.15,-0.2 0.35,-0.37 0.62,-0.5 0.27,-0.13 0.57,-0.19 0.9,-0.19 0.33,0 0.61,0.06 0.86,0.17 0.25,0.11 0.44,0.28 0.58,0.5 0.14,0.22 0.21,0.49 0.21,0.81l0 2.19zm-1.98 0.59c0.35,0 0.65,-0.08 0.91,-0.25 0.26,-0.17 0.45,-0.38 0.56,-0.64l0 -1 -0.86 0c-0.34,0 -0.63,0.04 -0.88,0.12 -0.24,0.08 -0.43,0.2 -0.56,0.35 -0.13,0.15 -0.19,0.33 -0.19,0.54 0,0.16 0.04,0.31 0.12,0.45 0.08,0.13 0.2,0.24 0.36,0.32 0.15,0.08 0.33,0.12 0.54,0.12zm4.99 0.02c0.21,0 0.41,-0.04 0.6,-0.12 0.19,-0.08 0.34,-0.2 0.46,-0.36 0.12,-0.16 0.19,-0.35 0.2,-0.57l0.48 0c-0.01,0.27 -0.09,0.51 -0.24,0.73 -0.15,0.22 -0.34,0.39 -0.58,0.52 -0.24,0.13 -0.5,0.21 -0.79,0.23l-0.04 0.23c0.2,0.03 0.37,0.1 0.5,0.21 0.13,0.11 0.2,0.28 0.2,0.51 0,0.17 -0.05,0.31 -0.14,0.44 -0.1,0.13 -0.24,0.22 -0.42,0.29 -0.19,0.07 -0.41,0.1 -0.66,0.1l-0.03 -0.32c0.23,0 0.43,-0.04 0.59,-0.13 0.17,-0.09 0.25,-0.21 0.25,-0.38 0,-0.15 -0.06,-0.26 -0.17,-0.32 -0.11,-0.06 -0.3,-0.11 -0.56,-0.13l0.11 -0.51c-0.36,-0.04 -0.67,-0.16 -0.92,-0.37 -0.25,-0.2 -0.44,-0.47 -0.57,-0.79 -0.13,-0.32 -0.19,-0.69 -0.19,-1.09l0 -0.18c0,-0.43 0.07,-0.81 0.22,-1.16 0.15,-0.34 0.37,-0.61 0.66,-0.81 0.29,-0.2 0.64,-0.3 1.05,-0.3 0.32,0 0.62,0.07 0.87,0.2 0.26,0.13 0.47,0.32 0.62,0.56 0.15,0.24 0.24,0.53 0.25,0.85l-0.48 0c-0.01,-0.24 -0.08,-0.45 -0.19,-0.63 -0.11,-0.18 -0.26,-0.31 -0.45,-0.41 -0.19,-0.1 -0.4,-0.14 -0.63,-0.14 -0.33,0 -0.6,0.08 -0.81,0.25 -0.21,0.17 -0.37,0.39 -0.47,0.66 -0.1,0.28 -0.15,0.58 -0.15,0.92l0 0.18c0,0.34 0.05,0.65 0.15,0.92 0.1,0.27 0.25,0.5 0.47,0.66 0.21,0.17 0.49,0.25 0.82,0.25zm6 -0.61c0,0.17 0.01,0.33 0.04,0.5 0.02,0.16 0.06,0.3 0.1,0.4l0 0.05 -0.54 0c-0.05,-0.15 -0.09,-0.36 -0.1,-0.63 -0.17,0.21 -0.38,0.38 -0.64,0.52 -0.26,0.13 -0.56,0.2 -0.9,0.2 -0.29,0 -0.54,-0.06 -0.77,-0.17 -0.22,-0.11 -0.39,-0.26 -0.51,-0.46 -0.12,-0.2 -0.18,-0.42 -0.18,-0.66 0,-0.29 0.08,-0.55 0.25,-0.76 0.17,-0.22 0.41,-0.38 0.72,-0.5 0.31,-0.12 0.68,-0.17 1.1,-0.17l0.93 0 0 -0.51c0,-0.33 -0.1,-0.58 -0.3,-0.77 -0.2,-0.19 -0.49,-0.28 -0.86,-0.28 -0.23,0 -0.44,0.04 -0.62,0.12 -0.19,0.08 -0.33,0.19 -0.43,0.33 -0.11,0.14 -0.16,0.29 -0.16,0.46l-0.5 -0c0,-0.23 0.07,-0.44 0.22,-0.65 0.15,-0.2 0.35,-0.37 0.62,-0.5 0.27,-0.13 0.57,-0.19 0.9,-0.19 0.33,0 0.61,0.06 0.86,0.17 0.25,0.11 0.44,0.28 0.58,0.5 0.14,0.22 0.21,0.49 0.21,0.81l0 2.19zm-1.98 0.59c0.35,0 0.65,-0.08 0.91,-0.25 0.26,-0.17 0.45,-0.38 0.56,-0.64l0 -1 -0.86 0c-0.34,0 -0.63,0.04 -0.88,0.12 -0.24,0.08 -0.43,0.2 -0.56,0.35 -0.13,0.15 -0.19,0.33 -0.19,0.54 0,0.16 0.04,0.31 0.12,0.45 0.08,0.13 0.2,0.24 0.36,0.32 0.15,0.08 0.33,0.12 0.54,0.12zm1.92 -5.9c0,0.18 -0.04,0.33 -0.11,0.47 -0.07,0.14 -0.17,0.24 -0.3,0.31 -0.13,0.07 -0.26,0.11 -0.41,0.11 -0.14,0 -0.25,-0.02 -0.34,-0.06 -0.09,-0.04 -0.19,-0.1 -0.3,-0.18 -0.1,-0.07 -0.18,-0.13 -0.25,-0.16 -0.07,-0.04 -0.16,-0.05 -0.26,-0.05 -0.13,0 -0.24,0.05 -0.33,0.14 -0.09,0.09 -0.13,0.21 -0.13,0.36l-0.38 -0.02c0,-0.17 0.04,-0.33 0.11,-0.46 0.07,-0.14 0.17,-0.24 0.3,-0.31 0.12,-0.07 0.26,-0.11 0.42,-0.11 0.12,0 0.22,0.02 0.31,0.06 0.09,0.04 0.19,0.1 0.32,0.18 0.1,0.07 0.19,0.13 0.27,0.16 0.08,0.04 0.17,0.05 0.26,0.05 0.13,0 0.24,-0.05 0.33,-0.14 0.09,-0.1 0.13,-0.22 0.13,-0.37l0.38 0.02zm1.12 3.93c0,-0.44 0.08,-0.83 0.25,-1.18 0.17,-0.35 0.41,-0.62 0.71,-0.81 0.31,-0.2 0.66,-0.29 1.06,-0.29 0.4,0 0.76,0.1 1.06,0.29 0.31,0.19 0.54,0.47 0.71,0.81 0.17,0.35 0.25,0.74 0.25,1.18l0 0.13c0,0.44 -0.08,0.83 -0.25,1.18 -0.17,0.35 -0.4,0.62 -0.71,0.81 -0.3,0.19 -0.66,0.29 -1.06,0.29 -0.4,0 -0.76,-0.1 -1.06,-0.29 -0.31,-0.2 -0.54,-0.47 -0.71,-0.81 -0.17,-0.35 -0.25,-0.74 -0.25,-1.18l0 -0.13zm0.5 0.13c0,0.34 0.06,0.65 0.18,0.93 0.12,0.28 0.29,0.51 0.52,0.67 0.23,0.17 0.5,0.25 0.82,0.25 0.31,0 0.59,-0.08 0.82,-0.25 0.23,-0.17 0.4,-0.39 0.52,-0.67 0.12,-0.28 0.18,-0.59 0.18,-0.93l0 -0.13c0,-0.33 -0.06,-0.64 -0.18,-0.92 -0.12,-0.28 -0.29,-0.51 -0.52,-0.68 -0.23,-0.17 -0.5,-0.26 -0.82,-0.26 -0.32,0 -0.59,0.09 -0.82,0.26 -0.23,0.17 -0.4,0.4 -0.52,0.68 -0.12,0.28 -0.18,0.59 -0.18,0.92l0 0.13zm6.9 2.2l0 -6.1 0.51 0 0 6.1 -0.51 0zm6.9 -4.62c0.48,0 0.85,0.13 1.11,0.4 0.25,0.27 0.38,0.69 0.38,1.26l0 2.95 -0.5 0 0 -2.96c0,-0.45 -0.09,-0.77 -0.28,-0.95 -0.19,-0.18 -0.46,-0.28 -0.81,-0.28 -0.27,0 -0.5,0.06 -0.7,0.18 -0.2,0.12 -0.35,0.27 -0.46,0.45 -0.11,0.18 -0.17,0.37 -0.19,0.56l0 3 -0.5 0 0 -3c0,-0.43 -0.1,-0.73 -0.29,-0.91 -0.19,-0.18 -0.46,-0.27 -0.81,-0.27 -0.35,0 -0.64,0.1 -0.85,0.3 -0.22,0.2 -0.37,0.46 -0.47,0.77l0 3.12 -0.5 0 0 -4.53 0.48 0 0.01 0.73c0.16,-0.26 0.36,-0.46 0.61,-0.6 0.25,-0.14 0.54,-0.22 0.86,-0.22 0.34,0 0.63,0.07 0.86,0.21 0.23,0.14 0.4,0.36 0.5,0.66 0.15,-0.27 0.36,-0.48 0.63,-0.64 0.27,-0.16 0.57,-0.24 0.92,-0.24zm2.48 2.28c0,-0.44 0.08,-0.83 0.25,-1.18 0.17,-0.35 0.4,-0.62 0.71,-0.81 0.31,-0.2 0.66,-0.29 1.06,-0.29 0.4,0 0.76,0.1 1.06,0.29 0.31,0.19 0.54,0.47 0.71,0.81 0.17,0.35 0.25,0.74 0.25,1.18l0 0.13c0,0.44 -0.08,0.83 -0.25,1.18 -0.17,0.35 -0.4,0.62 -0.71,0.81 -0.3,0.19 -0.66,0.29 -1.06,0.29 -0.4,0 -0.76,-0.1 -1.06,-0.29 -0.31,-0.2 -0.54,-0.47 -0.71,-0.81 -0.17,-0.35 -0.25,-0.74 -0.25,-1.18l0 -0.13zm0.5 0.13c0,0.34 0.06,0.65 0.18,0.93 0.12,0.28 0.29,0.51 0.52,0.67 0.23,0.17 0.5,0.25 0.82,0.25 0.31,0 0.59,-0.08 0.82,-0.25 0.23,-0.17 0.4,-0.39 0.52,-0.67 0.12,-0.28 0.18,-0.59 0.18,-0.93l0 -0.13c0,-0.33 -0.06,-0.64 -0.18,-0.92 -0.12,-0.28 -0.29,-0.51 -0.52,-0.68 -0.23,-0.17 -0.5,-0.26 -0.82,-0.26 -0.32,0 -0.59,0.09 -0.82,0.26 -0.23,0.17 -0.4,0.4 -0.52,0.68 -0.12,0.28 -0.18,0.59 -0.18,0.92l0 0.13zm6.49 -2.42c0.36,0 0.67,0.09 0.94,0.28 0.26,0.19 0.46,0.46 0.6,0.8 0.14,0.35 0.21,0.75 0.21,1.22l0 0.09c0,0.45 -0.07,0.85 -0.21,1.2 -0.14,0.35 -0.34,0.62 -0.6,0.81 -0.26,0.19 -0.57,0.29 -0.93,0.29 -0.32,0 -0.61,-0.06 -0.84,-0.18 -0.24,-0.12 -0.43,-0.3 -0.59,-0.52l-0.03 0.62 -0.47 0 0 -6.43 0.5 0 0 2.55c0.15,-0.24 0.35,-0.42 0.58,-0.55 0.24,-0.13 0.51,-0.19 0.83,-0.19zm1.23 2.31c0,-0.56 -0.11,-1.01 -0.33,-1.36 -0.22,-0.34 -0.55,-0.51 -1,-0.51 -0.35,0 -0.63,0.09 -0.84,0.26 -0.21,0.17 -0.37,0.39 -0.48,0.67l0 2.05c0.11,0.26 0.28,0.46 0.5,0.62 0.22,0.16 0.5,0.23 0.83,0.23 0.29,0 0.54,-0.08 0.74,-0.24 0.2,-0.16 0.34,-0.38 0.44,-0.66 0.09,-0.28 0.14,-0.6 0.14,-0.97l0 -0.09zm1.92 -3.87c0.11,0 0.19,0.03 0.25,0.1 0.06,0.06 0.09,0.15 0.09,0.24 0,0.09 -0.03,0.17 -0.09,0.24 -0.06,0.06 -0.15,0.09 -0.25,0.09 -0.1,0 -0.19,-0.03 -0.25,-0.09 -0.06,-0.06 -0.09,-0.14 -0.09,-0.24 0,-0.1 0.03,-0.18 0.09,-0.24 0.06,-0.06 0.15,-0.1 0.25,-0.1zm-0.25 6.18l0 -4.53 0.5 0 0 4.53 -0.5 0zm1.93 0l0 -6.43 0.5 0 0 6.43 -0.5 0zm2.18 -6.18c0.11,0 0.19,0.03 0.25,0.1 0.06,0.06 0.09,0.15 0.09,0.24 0,0.09 -0.03,0.17 -0.09,0.24 -0.06,0.06 -0.15,0.09 -0.25,0.09 -0.1,0 -0.19,-0.03 -0.25,-0.09 -0.06,-0.06 -0.09,-0.14 -0.09,-0.24 0,-0.1 0.03,-0.18 0.09,-0.24 0.06,-0.06 0.15,-0.1 0.25,-0.1zm-0.25 6.18l0 -4.53 0.5 0 0 4.53 -0.5 0zm5.13 -0.95c0,0.17 0.01,0.33 0.04,0.5 0.02,0.16 0.06,0.3 0.1,0.4l0 0.05 -0.54 0c-0.05,-0.15 -0.09,-0.36 -0.1,-0.63 -0.17,0.21 -0.38,0.38 -0.64,0.52 -0.26,0.13 -0.56,0.2 -0.89,0.2 -0.29,0 -0.54,-0.06 -0.77,-0.17 -0.22,-0.11 -0.39,-0.26 -0.51,-0.46 -0.12,-0.2 -0.18,-0.42 -0.18,-0.66 0,-0.29 0.08,-0.55 0.25,-0.76 0.17,-0.22 0.4,-0.38 0.72,-0.5 0.31,-0.12 0.68,-0.17 1.1,-0.17l0.93 0 0 -0.51c0,-0.33 -0.1,-0.58 -0.3,-0.77 -0.2,-0.19 -0.49,-0.28 -0.86,-0.28 -0.23,0 -0.44,0.04 -0.62,0.12 -0.19,0.08 -0.33,0.19 -0.43,0.33 -0.11,0.14 -0.16,0.29 -0.16,0.46l-0.5 -0c0,-0.23 0.07,-0.44 0.22,-0.65 0.15,-0.2 0.35,-0.37 0.62,-0.5 0.27,-0.13 0.56,-0.19 0.9,-0.19 0.33,0 0.61,0.06 0.86,0.17 0.25,0.11 0.44,0.28 0.58,0.5 0.14,0.22 0.21,0.49 0.21,0.81l0 2.19zm-1.98 0.59c0.35,0 0.65,-0.08 0.91,-0.25 0.26,-0.17 0.45,-0.38 0.56,-0.64l0 -1 -0.86 0c-0.34,0 -0.63,0.04 -0.88,0.12 -0.24,0.08 -0.43,0.2 -0.56,0.35 -0.13,0.15 -0.19,0.33 -0.19,0.54 0,0.16 0.04,0.31 0.12,0.45 0.08,0.13 0.2,0.24 0.36,0.32 0.15,0.08 0.33,0.12 0.54,0.12zm1.61 -6.07l-0.97 1.17 -0.44 0 0.8 -1.17 0.61 0zm3.8 2.32c-0.13,-0.02 -0.24,-0.03 -0.33,-0.03 -0.33,0 -0.6,0.09 -0.81,0.27 -0.21,0.18 -0.36,0.43 -0.45,0.74l0 3.12 -0.5 0 0 -4.53 0.49 0 0.01 0.71c0.12,-0.25 0.29,-0.45 0.51,-0.59 0.21,-0.14 0.47,-0.21 0.76,-0.21 0.06,0 0.12,0.01 0.18,0.02 0.06,0.01 0.11,0.02 0.15,0.04l-0.02 0.46zm1.11 -2.07c0.11,0 0.19,0.03 0.25,0.1 0.06,0.06 0.09,0.15 0.09,0.24 0,0.09 -0.03,0.17 -0.09,0.24 -0.06,0.06 -0.15,0.09 -0.25,0.09 -0.1,0 -0.19,-0.03 -0.25,-0.09 -0.06,-0.06 -0.09,-0.14 -0.09,-0.24 0,-0.1 0.03,-0.18 0.09,-0.24 0.06,-0.06 0.15,-0.1 0.25,-0.1zm-0.25 6.18l0 -4.53 0.5 0 0 4.53 -0.5 0zm5.13 -0.95c0,0.17 0.01,0.33 0.04,0.5 0.02,0.16 0.06,0.3 0.1,0.4l0 0.05 -0.54 0c-0.05,-0.15 -0.09,-0.36 -0.1,-0.63 -0.17,0.21 -0.38,0.38 -0.64,0.52 -0.26,0.13 -0.56,0.2 -0.89,0.2 -0.29,0 -0.54,-0.06 -0.77,-0.17 -0.22,-0.11 -0.39,-0.26 -0.51,-0.46 -0.12,-0.2 -0.18,-0.42 -0.18,-0.66 0,-0.29 0.08,-0.55 0.25,-0.76 0.17,-0.22 0.4,-0.38 0.72,-0.5 0.31,-0.12 0.68,-0.17 1.1,-0.17l0.93 0 0 -0.51c0,-0.33 -0.1,-0.58 -0.3,-0.77 -0.2,-0.19 -0.49,-0.28 -0.86,-0.28 -0.23,0 -0.44,0.04 -0.62,0.12 -0.19,0.08 -0.33,0.19 -0.43,0.33 -0.11,0.14 -0.16,0.29 -0.16,0.46l-0.5 -0c0,-0.23 0.07,-0.44 0.22,-0.65 0.15,-0.2 0.35,-0.37 0.62,-0.5 0.27,-0.13 0.56,-0.19 0.9,-0.19 0.33,0 0.61,0.06 0.86,0.17 0.25,0.11 0.44,0.28 0.58,0.5 0.14,0.22 0.21,0.49 0.21,0.81l0 2.19zm-1.98 0.59c0.35,0 0.65,-0.08 0.91,-0.25 0.26,-0.17 0.45,-0.38 0.56,-0.64l0 -1 -0.86 0c-0.34,0 -0.63,0.04 -0.88,0.12 -0.24,0.08 -0.43,0.2 -0.56,0.35 -0.13,0.15 -0.19,0.33 -0.19,0.54 0,0.16 0.04,0.31 0.12,0.45 0.08,0.13 0.2,0.24 0.36,0.32 0.15,0.08 0.33,0.12 0.54,0.12zm-21.84 -12.21l-4.8 0 -1 2.87 -2.33 0 4.72 -12.52 1.48 0 0.53 0 4.74 12.52 -2.33 0 -1 -2.87zm-0.63 -1.8l-1.78 -5.13 -1.78 5.13 3.56 0zm14.47 -7.85l-4.49 12.52 -1.66 0 -0.52 0 -4.47 -12.52 2.44 0 3.11 9.75 3.13 -9.75 2.45 0zm9.6 10.74l0 1.79 -6.58 0 -1.63 0 0 -12.52 2.23 0 5.93 0 0 1.8 -5.93 0 0 3.4 5.12 0 0 1.76 -5.12 0 0 3.78 5.99 0zm1.88 1.79l0 -12.52 2.22 0 0 12.52 -2.22 0zm14.34 -0.11l0 0.11 -2.39 0 -2.49 -4.8 -2.38 0 0 4.8 -2.23 0 0 -12.52 4.44 0c1.44,0 2.56,0.33 3.35,0.97 0.79,0.65 1.18,1.58 1.18,2.81 0,0.82 -0.2,1.52 -0.59,2.1 -0.39,0.58 -0.96,1.02 -1.69,1.32l2.79 5.21zm-7.26 -6.48l2.22 0c0.75,0 1.32,-0.19 1.71,-0.56 0.39,-0.37 0.59,-0.87 0.59,-1.49 0,-0.66 -0.19,-1.17 -0.57,-1.54 -0.38,-0.37 -0.96,-0.55 -1.74,-0.55l-2.21 0 0 4.14zm15.87 3.71l-4.8 0 -1 2.87 -2.33 0 4.72 -12.52 1.48 0 0.53 0 4.74 12.52 -2.33 0 -1 -2.87zm-0.63 -1.8l-1.78 -5.13 -1.78 5.13 3.56 0z"/>
  </g>
 </g>
</svg>
