<?xml version="1.0" encoding="UTF-8"?>
<!DOCTYPE svg PUBLIC "-//W3C//DTD SVG 1.1//EN" "http://www.w3.org/Graphics/SVG/1.1/DTD/svg11.dtd">
<!-- Creator: CorelDRAW 2018 (64 Bit Versão de avaliação) -->
<svg xmlns="http://www.w3.org/2000/svg" xml:space="preserve" width="16.9333mm" height="9.2542mm" version="1.1" style="shape-rendering:geometricPrecision; text-rendering:geometricPrecision; image-rendering:optimizeQuality; fill-rule:evenodd; clip-rule:evenodd"
viewBox="0 0 104.05 56.86"
 xmlns:xlink="http://www.w3.org/1999/xlink">
 <defs>
  <style type="text/css">
   <![CDATA[
    .fil0 {fill:#990000}
    .fil1 {fill:black;fill-rule:nonzero}
   ]]>
  </style>
 </defs>
 <g id="Camada_x0020_1">
  <metadata id="CorelCorpID_0Corel-Layer"/>
  <g id="_1739047937584">
   <path class="fil0" d="M18.85 0l-18.85 5.82 0 22.62 0 22.62 18.85 5.82 0 -28.43 0 -28.43zm5.15 28.86l0 -9.57 1.69 0 0 9.57 -1.69 0zm13.57 0l-1.69 0 0 -3.09 0.16 -4.25 -2.79 7.34 -1.22 0 -2.79 -7.34 0.17 4.25 0 3.09 -1.7 0 0 -9.57 1.45 0 0.76 0 2.72 7.28 2.72 -7.28 2.21 0 0 9.57zm9.61 -4.54c0,0.95 -0.17,1.78 -0.5,2.49 -0.33,0.7 -0.8,1.25 -1.4,1.62 -0.6,0.38 -1.3,0.57 -2.08,0.57 -0.78,0 -1.47,-0.19 -2.08,-0.57 -0.6,-0.38 -1.08,-0.92 -1.41,-1.62 -0.34,-0.7 -0.51,-1.53 -0.51,-2.48l0 -0.48c0,-0.95 0.17,-1.78 0.5,-2.49 0.33,-0.7 0.8,-1.25 1.41,-1.63 0.6,-0.38 1.29,-0.57 2.07,-0.57 0.79,0 1.49,0.19 2.09,0.57 0.6,0.38 1.07,0.92 1.4,1.62 0.33,0.71 0.5,1.54 0.5,2.49l0 0.48zm-1.71 -0.49c0,-1.06 -0.2,-1.86 -0.59,-2.42 -0.4,-0.56 -0.96,-0.84 -1.69,-0.84 -0.47,0 -0.87,0.12 -1.22,0.37 -0.34,0.25 -0.6,0.62 -0.79,1.11 -0.18,0.49 -0.27,1.08 -0.27,1.78l0 0.49c0,0.7 0.09,1.29 0.28,1.78 0.18,0.49 0.45,0.86 0.79,1.11 0.34,0.25 0.75,0.38 1.22,0.38 0.73,0 1.29,-0.28 1.68,-0.84 0.39,-0.56 0.59,-1.37 0.59,-2.43l0 -0.49zm-25.39 -18.01l11.05 0 0 11.83 -1.23 0 0 -10.7 -9.82 0 0 -1.13zm11.05 32.24l0 12.99 -11.05 0 0 -1.13 9.82 0 0 -11.86 1.23 0zm-15.39 -11.56c0.41,0.05 0.74,0.53 0.74,1.07 0,0.4 -0.18,0.72 -0.45,0.84l0.38 1.89 -0.67 -0.08 -0.67 -0.08 0.38 -1.8c-0.26,-0.18 -0.45,-0.55 -0.45,-0.95 0,-0.54 0.33,-0.93 0.74,-0.88z"/>
   <path class="fil1" d="M58.79 20.67l-2.98 0 0 8.2 -1.7 0 0 -8.2 -2.94 0 0 -1.38 4.64 0 2.98 0 0 1.38zm-30.25 15.61l-0.39 0 0 -2.04 0.04 -2.07 -1.74 4.11 -0.3 0 -1.73 -4.1 0.03 2.06 0 2.04 -0.39 0 0 -4.66 0.35 0 0.17 0 1.72 4.11 1.72 -4.11 0.52 0 0 4.66zm1.26 -1.71l0 0.07c0,0.25 0.05,0.49 0.15,0.7 0.1,0.21 0.24,0.38 0.42,0.5 0.18,0.12 0.38,0.18 0.61,0.18 0.21,0 0.39,-0.04 0.55,-0.11 0.16,-0.08 0.3,-0.2 0.42,-0.36l0.24 0.18c-0.13,0.19 -0.29,0.33 -0.49,0.45 -0.2,0.11 -0.45,0.17 -0.74,0.17 -0.3,0 -0.56,-0.07 -0.8,-0.22 -0.24,-0.14 -0.42,-0.35 -0.55,-0.6 -0.13,-0.26 -0.2,-0.55 -0.2,-0.88l0 -0.14c0,-0.35 0.07,-0.65 0.2,-0.92 0.14,-0.27 0.32,-0.47 0.54,-0.62 0.23,-0.15 0.47,-0.22 0.74,-0.22 0.29,0 0.53,0.07 0.74,0.2 0.21,0.13 0.36,0.32 0.47,0.56 0.11,0.24 0.16,0.51 0.16,0.82l0 0.23 -2.47 0zm1.1 -1.49c-0.19,0 -0.36,0.05 -0.52,0.14 -0.15,0.1 -0.28,0.23 -0.38,0.41 -0.1,0.18 -0.16,0.38 -0.19,0.61l2.07 0 0 -0.04c-0,-0.2 -0.04,-0.39 -0.12,-0.56 -0.08,-0.17 -0.19,-0.31 -0.34,-0.41 -0.15,-0.1 -0.32,-0.15 -0.53,-0.15zm4.75 -1.72l0 4.92 -0.36 0 -0.02 -0.46c-0.12,0.17 -0.27,0.3 -0.45,0.39 -0.18,0.09 -0.39,0.14 -0.64,0.14 -0.27,0 -0.5,-0.07 -0.7,-0.22 -0.2,-0.15 -0.36,-0.36 -0.46,-0.62 -0.11,-0.27 -0.16,-0.57 -0.16,-0.92l0 -0.07c0,-0.36 0.05,-0.67 0.16,-0.93 0.11,-0.27 0.26,-0.47 0.46,-0.62 0.2,-0.14 0.44,-0.22 0.71,-0.22 0.24,0 0.45,0.05 0.63,0.14 0.18,0.1 0.33,0.23 0.44,0.4l0 -1.94 0.38 0zm-1.39 4.65c0.25,0 0.45,-0.06 0.62,-0.17 0.17,-0.11 0.29,-0.26 0.39,-0.46l0 -1.63c-0.09,-0.2 -0.21,-0.36 -0.37,-0.48 -0.16,-0.12 -0.37,-0.19 -0.63,-0.19 -0.23,0 -0.42,0.06 -0.57,0.19 -0.15,0.12 -0.27,0.29 -0.34,0.51 -0.07,0.22 -0.11,0.46 -0.11,0.74l0 0.07c0,0.28 0.04,0.52 0.11,0.74 0.08,0.22 0.19,0.38 0.34,0.51 0.15,0.12 0.34,0.18 0.57,0.18zm2.63 -4.46c0.08,0 0.15,0.02 0.19,0.07 0.05,0.05 0.07,0.11 0.07,0.19 0,0.07 -0.02,0.13 -0.07,0.18 -0.05,0.05 -0.11,0.07 -0.19,0.07 -0.08,0 -0.14,-0.02 -0.19,-0.07 -0.05,-0.05 -0.07,-0.11 -0.07,-0.18 0,-0.07 0.02,-0.14 0.07,-0.19 0.05,-0.05 0.11,-0.07 0.19,-0.07zm-0.19 4.72l0 -3.46 0.38 0 0 3.46 -0.38 0zm3.92 -0.73c0,0.13 0.01,0.25 0.03,0.38 0.02,0.13 0.04,0.23 0.08,0.3l0 0.04 -0.41 0c-0.04,-0.11 -0.07,-0.27 -0.08,-0.48 -0.13,0.16 -0.29,0.29 -0.49,0.39 -0.2,0.1 -0.43,0.15 -0.68,0.15 -0.22,0 -0.42,-0.04 -0.59,-0.13 -0.17,-0.08 -0.3,-0.2 -0.39,-0.35 -0.09,-0.15 -0.14,-0.32 -0.14,-0.51 0,-0.22 0.06,-0.42 0.19,-0.58 0.13,-0.16 0.31,-0.29 0.55,-0.38 0.24,-0.09 0.52,-0.13 0.84,-0.13l0.71 0 0 -0.39c0,-0.25 -0.08,-0.45 -0.23,-0.59 -0.15,-0.14 -0.37,-0.21 -0.66,-0.21 -0.18,0 -0.33,0.03 -0.48,0.1 -0.14,0.06 -0.25,0.15 -0.33,0.25 -0.08,0.11 -0.12,0.22 -0.12,0.35l-0.38 -0c0,-0.17 0.06,-0.34 0.17,-0.49 0.11,-0.16 0.27,-0.28 0.47,-0.38 0.2,-0.1 0.43,-0.14 0.69,-0.14 0.25,0 0.47,0.04 0.66,0.13 0.19,0.08 0.34,0.21 0.44,0.38 0.11,0.17 0.16,0.38 0.16,0.62l0 1.67zm-1.51 0.45c0.27,0 0.5,-0.06 0.7,-0.19 0.2,-0.13 0.34,-0.29 0.43,-0.49l0 -0.76 -0.66 0c-0.26,0 -0.48,0.03 -0.67,0.09 -0.19,0.06 -0.33,0.15 -0.43,0.27 -0.1,0.11 -0.15,0.25 -0.15,0.41 0,0.13 0.03,0.24 0.09,0.34 0.06,0.1 0.16,0.18 0.27,0.24 0.12,0.06 0.25,0.09 0.41,0.09zm3.82 0.01c0.16,0 0.32,-0.03 0.46,-0.09 0.14,-0.06 0.26,-0.16 0.35,-0.28 0.09,-0.12 0.14,-0.27 0.15,-0.44l0.36 0c-0.01,0.2 -0.07,0.39 -0.18,0.56 -0.11,0.17 -0.26,0.3 -0.44,0.4 -0.18,0.1 -0.38,0.16 -0.6,0.17l-0.03 0.18c0.15,0.02 0.28,0.07 0.38,0.16 0.1,0.08 0.15,0.21 0.15,0.39 0,0.13 -0.04,0.24 -0.11,0.34 -0.07,0.1 -0.18,0.17 -0.32,0.22 -0.14,0.05 -0.31,0.08 -0.51,0.08l-0.02 -0.25c0.17,0 0.33,-0.03 0.45,-0.1 0.13,-0.07 0.19,-0.16 0.19,-0.29 0,-0.12 -0.04,-0.2 -0.13,-0.25 -0.09,-0.05 -0.23,-0.08 -0.43,-0.1l0.09 -0.39c-0.28,-0.03 -0.51,-0.13 -0.7,-0.28 -0.19,-0.16 -0.34,-0.36 -0.44,-0.61 -0.1,-0.25 -0.15,-0.52 -0.15,-0.83l0 -0.14c0,-0.33 0.06,-0.62 0.17,-0.88 0.11,-0.26 0.28,-0.47 0.5,-0.62 0.22,-0.15 0.49,-0.23 0.8,-0.23 0.25,0 0.47,0.05 0.67,0.15 0.2,0.1 0.36,0.24 0.47,0.43 0.12,0.19 0.18,0.4 0.19,0.65l-0.36 0c-0.01,-0.18 -0.06,-0.34 -0.15,-0.48 -0.09,-0.14 -0.2,-0.24 -0.35,-0.31 -0.14,-0.07 -0.3,-0.11 -0.48,-0.11 -0.25,0 -0.46,0.06 -0.62,0.19 -0.16,0.13 -0.28,0.3 -0.36,0.51 -0.07,0.21 -0.11,0.45 -0.11,0.7l0 0.14c0,0.26 0.04,0.49 0.11,0.71 0.07,0.21 0.19,0.38 0.36,0.5 0.16,0.13 0.37,0.19 0.63,0.19zm4.59 -0.46c0,0.13 0.01,0.25 0.03,0.38 0.02,0.13 0.04,0.23 0.08,0.3l0 0.04 -0.41 0c-0.04,-0.11 -0.07,-0.27 -0.08,-0.48 -0.13,0.16 -0.29,0.29 -0.49,0.39 -0.2,0.1 -0.43,0.15 -0.68,0.15 -0.22,0 -0.42,-0.04 -0.59,-0.13 -0.17,-0.08 -0.3,-0.2 -0.39,-0.35 -0.09,-0.15 -0.14,-0.32 -0.14,-0.51 0,-0.22 0.06,-0.42 0.19,-0.58 0.13,-0.16 0.31,-0.29 0.55,-0.38 0.24,-0.09 0.52,-0.13 0.84,-0.13l0.71 0 0 -0.39c0,-0.25 -0.08,-0.45 -0.23,-0.59 -0.15,-0.14 -0.37,-0.21 -0.66,-0.21 -0.17,0 -0.33,0.03 -0.47,0.1 -0.14,0.06 -0.25,0.15 -0.33,0.25 -0.08,0.11 -0.12,0.22 -0.12,0.35l-0.38 -0c0,-0.17 0.06,-0.34 0.17,-0.49 0.11,-0.16 0.27,-0.28 0.47,-0.38 0.2,-0.1 0.43,-0.14 0.69,-0.14 0.25,0 0.47,0.04 0.66,0.13 0.19,0.08 0.34,0.21 0.44,0.38 0.11,0.17 0.16,0.38 0.16,0.62l0 1.67zm-1.51 0.45c0.27,0 0.5,-0.06 0.7,-0.19 0.2,-0.13 0.34,-0.29 0.43,-0.49l0 -0.76 -0.66 0c-0.26,0 -0.48,0.03 -0.67,0.09 -0.19,0.06 -0.33,0.15 -0.43,0.27 -0.1,0.11 -0.15,0.25 -0.15,0.41 0,0.13 0.03,0.24 0.09,0.34 0.06,0.1 0.16,0.18 0.27,0.24 0.12,0.06 0.25,0.09 0.41,0.09zm1.47 -4.51c0,0.13 -0.03,0.25 -0.08,0.36 -0.06,0.1 -0.13,0.18 -0.23,0.24 -0.1,0.06 -0.2,0.09 -0.32,0.09 -0.11,0 -0.19,-0.02 -0.26,-0.05 -0.07,-0.03 -0.15,-0.08 -0.23,-0.14 -0.07,-0.06 -0.14,-0.1 -0.19,-0.12 -0.06,-0.03 -0.12,-0.04 -0.2,-0.04 -0.1,0 -0.18,0.04 -0.25,0.1 -0.07,0.07 -0.1,0.16 -0.1,0.28l-0.29 -0.01c0,-0.13 0.03,-0.25 0.08,-0.35 0.06,-0.1 0.13,-0.18 0.23,-0.24 0.1,-0.06 0.2,-0.09 0.32,-0.09 0.09,0 0.17,0.02 0.24,0.05 0.07,0.03 0.15,0.08 0.24,0.14 0.08,0.06 0.15,0.1 0.2,0.12 0.06,0.03 0.13,0.04 0.2,0.04 0.1,0 0.18,-0.04 0.25,-0.11 0.07,-0.07 0.1,-0.17 0.1,-0.28l0.29 0.02zm0.86 3c0,-0.34 0.06,-0.63 0.19,-0.9 0.13,-0.26 0.31,-0.47 0.54,-0.62 0.23,-0.15 0.5,-0.22 0.81,-0.22 0.31,0 0.58,0.08 0.81,0.22 0.23,0.15 0.42,0.36 0.54,0.62 0.13,0.26 0.19,0.56 0.19,0.9l0 0.1c0,0.34 -0.06,0.63 -0.19,0.9 -0.13,0.26 -0.31,0.47 -0.54,0.62 -0.23,0.15 -0.5,0.22 -0.81,0.22 -0.31,0 -0.58,-0.08 -0.81,-0.22 -0.23,-0.15 -0.42,-0.36 -0.54,-0.62 -0.13,-0.26 -0.19,-0.56 -0.19,-0.9l0 -0.1zm0.38 0.1c0,0.26 0.05,0.5 0.14,0.71 0.09,0.22 0.22,0.39 0.4,0.52 0.18,0.13 0.39,0.19 0.63,0.19 0.24,0 0.45,-0.06 0.62,-0.19 0.18,-0.13 0.31,-0.3 0.4,-0.52 0.09,-0.22 0.14,-0.45 0.14,-0.71l0 -0.1c0,-0.25 -0.05,-0.49 -0.14,-0.7 -0.09,-0.22 -0.23,-0.39 -0.4,-0.52 -0.18,-0.13 -0.39,-0.2 -0.63,-0.2 -0.24,0 -0.45,0.07 -0.62,0.2 -0.18,0.13 -0.31,0.3 -0.4,0.52 -0.09,0.22 -0.14,0.45 -0.14,0.7l0 0.1zm5.28 1.68l0 -4.66 0.39 0 0 4.66 -0.39 0zm5.28 -3.53c0.37,0 0.65,0.1 0.84,0.31 0.19,0.2 0.29,0.53 0.29,0.96l0 2.26 -0.38 0 0 -2.26c0,-0.34 -0.07,-0.59 -0.22,-0.73 -0.14,-0.14 -0.35,-0.21 -0.62,-0.21 -0.2,0 -0.38,0.05 -0.53,0.14 -0.15,0.09 -0.27,0.21 -0.35,0.34 -0.08,0.14 -0.13,0.28 -0.14,0.42l0 2.29 -0.38 0 0 -2.29c0,-0.33 -0.07,-0.56 -0.22,-0.7 -0.15,-0.14 -0.35,-0.21 -0.62,-0.21 -0.27,0 -0.49,0.08 -0.65,0.23 -0.17,0.15 -0.29,0.35 -0.36,0.59l0 2.38 -0.38 0 0 -3.46 0.37 0 0.01 0.56c0.12,-0.2 0.28,-0.35 0.47,-0.46 0.19,-0.11 0.41,-0.17 0.66,-0.17 0.26,0 0.48,0.05 0.66,0.16 0.18,0.11 0.3,0.28 0.38,0.51 0.11,-0.2 0.27,-0.36 0.48,-0.49 0.2,-0.12 0.44,-0.18 0.71,-0.18zm1.9 1.75c0,-0.34 0.06,-0.63 0.19,-0.9 0.13,-0.26 0.31,-0.47 0.54,-0.62 0.23,-0.15 0.5,-0.22 0.81,-0.22 0.31,0 0.58,0.08 0.81,0.22 0.23,0.15 0.42,0.36 0.54,0.62 0.13,0.26 0.19,0.56 0.19,0.9l0 0.1c0,0.34 -0.06,0.63 -0.19,0.9 -0.13,0.26 -0.31,0.47 -0.54,0.62 -0.23,0.15 -0.5,0.22 -0.81,0.22 -0.31,0 -0.58,-0.08 -0.81,-0.22 -0.23,-0.15 -0.42,-0.36 -0.54,-0.62 -0.13,-0.26 -0.19,-0.56 -0.19,-0.9l0 -0.1zm0.38 0.1c0,0.26 0.05,0.5 0.14,0.71 0.09,0.22 0.22,0.39 0.4,0.52 0.18,0.13 0.39,0.19 0.63,0.19 0.24,0 0.45,-0.06 0.62,-0.19 0.18,-0.13 0.31,-0.3 0.4,-0.52 0.09,-0.22 0.14,-0.45 0.14,-0.71l0 -0.1c0,-0.25 -0.05,-0.49 -0.14,-0.7 -0.09,-0.22 -0.23,-0.39 -0.4,-0.52 -0.18,-0.13 -0.39,-0.2 -0.63,-0.2 -0.24,0 -0.45,0.07 -0.62,0.2 -0.18,0.13 -0.31,0.3 -0.4,0.52 -0.09,0.22 -0.14,0.45 -0.14,0.7l0 0.1zm4.96 -1.85c0.28,0 0.52,0.07 0.72,0.22 0.2,0.14 0.35,0.35 0.46,0.61 0.11,0.26 0.16,0.58 0.16,0.94l0 0.07c0,0.35 -0.05,0.65 -0.16,0.92 -0.1,0.27 -0.26,0.47 -0.46,0.62 -0.2,0.15 -0.44,0.22 -0.71,0.22 -0.25,0 -0.46,-0.05 -0.65,-0.14 -0.18,-0.09 -0.33,-0.23 -0.45,-0.4l-0.02 0.48 -0.36 0 0 -4.92 0.38 0 0 1.95c0.12,-0.18 0.27,-0.32 0.45,-0.42 0.18,-0.1 0.39,-0.15 0.64,-0.15zm0.94 1.76c0,-0.43 -0.08,-0.77 -0.25,-1.04 -0.17,-0.26 -0.42,-0.39 -0.76,-0.39 -0.27,0 -0.48,0.07 -0.64,0.2 -0.16,0.13 -0.29,0.3 -0.37,0.51l0 1.56c0.09,0.2 0.22,0.35 0.38,0.47 0.17,0.12 0.38,0.18 0.63,0.18 0.22,0 0.41,-0.06 0.56,-0.18 0.15,-0.12 0.26,-0.29 0.34,-0.5 0.07,-0.22 0.11,-0.46 0.11,-0.74l0 -0.07zm1.47 -2.96c0.08,0 0.15,0.02 0.19,0.07 0.05,0.05 0.07,0.11 0.07,0.19 0,0.07 -0.02,0.13 -0.07,0.18 -0.05,0.05 -0.11,0.07 -0.19,0.07 -0.08,0 -0.14,-0.02 -0.19,-0.07 -0.05,-0.05 -0.07,-0.11 -0.07,-0.18 0,-0.07 0.02,-0.14 0.07,-0.19 0.05,-0.05 0.11,-0.07 0.19,-0.07zm-0.19 4.72l0 -3.46 0.38 0 0 3.46 -0.38 0zm1.47 0l0 -4.92 0.38 0 0 4.92 -0.38 0zm1.67 -4.72c0.08,0 0.15,0.02 0.19,0.07 0.05,0.05 0.07,0.11 0.07,0.19 0,0.07 -0.02,0.13 -0.07,0.18 -0.05,0.05 -0.11,0.07 -0.19,0.07 -0.08,0 -0.14,-0.02 -0.19,-0.07 -0.05,-0.05 -0.07,-0.11 -0.07,-0.18 0,-0.07 0.02,-0.14 0.07,-0.19 0.05,-0.05 0.11,-0.07 0.19,-0.07zm-0.19 4.72l0 -3.46 0.38 0 0 3.46 -0.38 0zm3.92 -0.73c0,0.13 0.01,0.25 0.03,0.38 0.02,0.13 0.04,0.23 0.08,0.3l0 0.04 -0.41 0c-0.04,-0.11 -0.07,-0.27 -0.08,-0.48 -0.13,0.16 -0.29,0.29 -0.49,0.39 -0.2,0.1 -0.43,0.15 -0.68,0.15 -0.22,0 -0.42,-0.04 -0.59,-0.13 -0.17,-0.08 -0.3,-0.2 -0.39,-0.35 -0.09,-0.15 -0.14,-0.32 -0.14,-0.51 0,-0.22 0.06,-0.42 0.19,-0.58 0.13,-0.16 0.31,-0.29 0.55,-0.38 0.24,-0.09 0.52,-0.13 0.84,-0.13l0.71 0 0 -0.39c0,-0.25 -0.08,-0.45 -0.23,-0.59 -0.15,-0.14 -0.37,-0.21 -0.66,-0.21 -0.18,0 -0.33,0.03 -0.48,0.1 -0.14,0.06 -0.25,0.15 -0.33,0.25 -0.08,0.11 -0.12,0.22 -0.12,0.35l-0.38 -0c0,-0.17 0.06,-0.34 0.17,-0.49 0.11,-0.16 0.27,-0.28 0.47,-0.38 0.2,-0.1 0.43,-0.14 0.69,-0.14 0.25,0 0.47,0.04 0.66,0.13 0.19,0.08 0.34,0.21 0.44,0.38 0.11,0.17 0.16,0.38 0.16,0.62l0 1.67zm-1.51 0.45c0.27,0 0.5,-0.06 0.7,-0.19 0.2,-0.13 0.34,-0.29 0.43,-0.49l0 -0.76 -0.66 0c-0.26,0 -0.48,0.03 -0.67,0.09 -0.19,0.06 -0.33,0.15 -0.43,0.27 -0.1,0.11 -0.15,0.25 -0.15,0.41 0,0.13 0.03,0.24 0.1,0.34 0.06,0.1 0.15,0.18 0.27,0.24 0.12,0.06 0.25,0.09 0.41,0.09zm1.23 -4.64l-0.74 0.89 -0.34 0 0.61 -0.89 0.46 0zm2.91 1.78c-0.1,-0.02 -0.18,-0.02 -0.26,-0.02 -0.25,0 -0.46,0.07 -0.62,0.21 -0.16,0.14 -0.28,0.33 -0.34,0.57l0 2.39 -0.38 0 0 -3.46 0.37 0 0.01 0.54c0.1,-0.19 0.23,-0.34 0.39,-0.45 0.16,-0.11 0.36,-0.16 0.58,-0.16 0.04,0 0.09,0 0.14,0.01 0.05,0.01 0.09,0.02 0.12,0.03l-0.01 0.35zm0.85 -1.58c0.08,0 0.15,0.02 0.19,0.07 0.05,0.05 0.07,0.11 0.07,0.19 0,0.07 -0.02,0.13 -0.07,0.18 -0.05,0.05 -0.11,0.07 -0.19,0.07 -0.08,0 -0.14,-0.02 -0.19,-0.07 -0.05,-0.05 -0.07,-0.11 -0.07,-0.18 0,-0.07 0.02,-0.14 0.07,-0.19 0.05,-0.05 0.11,-0.07 0.19,-0.07zm-0.19 4.72l0 -3.46 0.38 0 0 3.46 -0.38 0zm3.92 -0.73c0,0.13 0.01,0.25 0.03,0.38 0.02,0.13 0.04,0.23 0.08,0.3l0 0.04 -0.41 0c-0.04,-0.11 -0.07,-0.27 -0.08,-0.48 -0.13,0.16 -0.29,0.29 -0.49,0.39 -0.2,0.1 -0.43,0.15 -0.68,0.15 -0.22,0 -0.42,-0.04 -0.59,-0.13 -0.17,-0.08 -0.3,-0.2 -0.39,-0.35 -0.09,-0.15 -0.14,-0.32 -0.14,-0.51 0,-0.22 0.06,-0.42 0.19,-0.58 0.13,-0.16 0.31,-0.29 0.55,-0.38 0.24,-0.09 0.52,-0.13 0.84,-0.13l0.71 0 0 -0.39c0,-0.25 -0.08,-0.45 -0.23,-0.59 -0.15,-0.14 -0.37,-0.21 -0.66,-0.21 -0.18,0 -0.33,0.03 -0.48,0.1 -0.14,0.06 -0.25,0.15 -0.33,0.25 -0.08,0.11 -0.12,0.22 -0.12,0.35l-0.38 -0c0,-0.17 0.06,-0.34 0.17,-0.49 0.11,-0.16 0.27,-0.28 0.47,-0.38 0.2,-0.1 0.43,-0.14 0.69,-0.14 0.25,0 0.47,0.04 0.66,0.13 0.19,0.08 0.34,0.21 0.44,0.38 0.11,0.17 0.16,0.38 0.16,0.62l0 1.67zm-1.51 0.45c0.27,0 0.5,-0.06 0.7,-0.19 0.2,-0.13 0.34,-0.29 0.43,-0.49l0 -0.76 -0.66 0c-0.26,0 -0.48,0.03 -0.67,0.09 -0.19,0.06 -0.33,0.15 -0.43,0.27 -0.1,0.11 -0.15,0.25 -0.15,0.41 0,0.13 0.03,0.24 0.09,0.34 0.06,0.1 0.16,0.18 0.27,0.24 0.12,0.06 0.25,0.09 0.41,0.09zm-16.7 -9.34l-3.67 0 -0.76 2.2 -1.78 0 3.61 -9.57 1.13 0 0.4 0 3.62 9.57 -1.78 0 -0.76 -2.2zm-0.48 -1.37l-1.36 -3.92 -1.36 3.92 2.72 0zm11.07 -6l-3.43 9.57 -1.27 0 -0.4 0 -3.42 -9.57 1.87 0 2.38 7.45 2.39 -7.45 1.87 0zm7.34 8.21l0 1.37 -5.03 0 -1.25 0 0 -9.57 1.7 0 4.54 0 0 1.38 -4.54 0 0 2.6 3.91 0 0 1.34 -3.91 0 0 2.89 4.58 0zm1.44 1.37l0 -9.57 1.69 0 0 9.57 -1.69 0zm10.96 -0.09l0 0.09 -1.83 0 -1.9 -3.67 -1.82 0 0 3.67 -1.7 0 0 -9.57 3.39 0c1.1,0 1.96,0.25 2.56,0.74 0.6,0.5 0.9,1.21 0.9,2.15 0,0.63 -0.15,1.17 -0.45,1.6 -0.3,0.44 -0.73,0.78 -1.29,1.01l2.14 3.99zm-5.55 -4.95l1.69 0c0.57,0 1.01,-0.14 1.31,-0.43 0.3,-0.29 0.45,-0.66 0.45,-1.14 0,-0.51 -0.15,-0.9 -0.44,-1.18 -0.29,-0.28 -0.73,-0.42 -1.33,-0.42l-1.69 0 0 3.16zm12.13 2.84l-3.67 0 -0.76 2.2 -1.78 0 3.61 -9.57 1.13 0 0.4 0 3.62 9.57 -1.78 0 -0.76 -2.2zm-0.48 -1.37l-1.36 -3.92 -1.36 3.92 2.72 0z"/>
  </g>
 </g>
</svg>
