<?xml version="1.0" encoding="UTF-8"?>
<!DOCTYPE svg PUBLIC "-//W3C//DTD SVG 1.1//EN" "http://www.w3.org/Graphics/SVG/1.1/DTD/svg11.dtd">
<!-- Creator: CorelDRAW 2018 (64 Bit Versão de avaliação) -->
<svg xmlns="http://www.w3.org/2000/svg" xml:space="preserve" width="8.0001mm" height="8.1427mm" version="1.1" style="shape-rendering:geometricPrecision; text-rendering:geometricPrecision; image-rendering:optimizeQuality; fill-rule:evenodd; clip-rule:evenodd"
viewBox="0 0 32.91 33.5"
 xmlns:xlink="http://www.w3.org/1999/xlink">
 <defs>
  <style type="text/css">
   <![CDATA[
    .fil0 {fill:black}
   ]]>
  </style>
 </defs>
 <g id="Camada_x0020_1">
  <metadata id="CorelCorpID_0Corel-Layer"/>
  <path class="fil0" d="M9.04 1.2l3.93 7.98c0.53,1.07 0.09,2.39 -0.97,2.92l-0.98 0.49c2.56,4.18 5.75,7.65 9.68,10.28l0.79 -1.23c0.63,-1 1.97,-1.31 2.97,-0.65l7.44 4.79c1,0.65 1.3,2 0.66,3l-1.43 2.26c-0.64,1.02 -1.98,1.31 -2.99,0.67 -12.81,-8.26 -17.66,-11.75 -25.36,-27.36 -0.53,-1.08 -0.09,-2.39 0.97,-2.92l2.39 -1.2c1.07,-0.53 2.36,-0.11 2.89,0.97zm6.49 0.97c4.29,0 8.19,1.75 10.99,4.59 2.81,2.83 4.55,6.75 4.55,11.07 0,1.69 -0.26,3.31 -0.75,4.85l-1.89 -1.22c0.33,-1.15 0.49,-2.37 0.49,-3.62 0,-3.72 -1.49,-7.1 -3.91,-9.54 -2.43,-2.43 -5.76,-3.95 -9.46,-3.95 -0.97,0 -1.94,0.1 -2.86,0.31l-0.99 -2c1.23,-0.32 2.52,-0.49 3.85,-0.49zm8.4 28.87c-2.43,1.57 -5.31,2.47 -8.4,2.47 -4.29,0 -8.18,-1.75 -10.98,-4.59 -2.81,-2.83 -4.55,-6.75 -4.55,-11.08 0,-3.47 1.11,-6.68 3.01,-9.27 0.39,0.75 0.78,1.47 1.16,2.14 -1.27,2.08 -2,4.52 -2,7.13 0,3.73 1.49,7.11 3.9,9.55 2.43,2.44 5.77,3.96 9.47,3.96 2.32,0 4.51,-0.61 6.41,-1.65 0.63,0.45 1.29,0.88 2,1.34z"/>
 </g>
</svg>
