<?xml version="1.0" encoding="UTF-8"?>
<!DOCTYPE svg PUBLIC "-//W3C//DTD SVG 1.1//EN" "http://www.w3.org/Graphics/SVG/1.1/DTD/svg11.dtd">
<!-- Creator: CorelDRAW 2018 (64 Bit Versão de avaliação) -->
<svg xmlns="http://www.w3.org/2000/svg" xml:space="preserve" width="8.0001mm" height="8.0042mm" version="1.1" style="shape-rendering:geometricPrecision; text-rendering:geometricPrecision; image-rendering:optimizeQuality; fill-rule:evenodd; clip-rule:evenodd"
viewBox="0 0 32.91 32.93"
 xmlns:xlink="http://www.w3.org/1999/xlink">
 <defs>
  <style type="text/css">
   <![CDATA[
    .fil0 {fill:black}
   ]]>
  </style>
 </defs>
 <g id="Camada_x0020_1">
  <metadata id="CorelCorpID_0Corel-Layer"/>
  <path class="fil0" d="M31.68 22.28c-0.82,1.97 -2.03,3.75 -3.52,5.23 -1.49,1.48 -3.28,2.68 -5.27,3.49 -1.92,0.79 -4.02,1.22 -6.21,1.22 -0.7,0 -1.39,-0.04 -2.07,-0.13 -0.69,-0.08 -1.36,-0.21 -2,-0.37 -0.66,-0.17 -1.31,-0.38 -1.94,-0.63l-0 0c-0.63,-0.25 -1.25,-0.54 -1.85,-0.87l-0 0 -0.12 -0.07 -7.96 2.53 -0.74 0.24 0.25 -0.74 2.58 -7.63 -0.08 -0.12 0 -0c-0.37,-0.62 -0.71,-1.27 -1.01,-1.94 -0.29,-0.66 -0.53,-1.35 -0.73,-2.05 -0.19,-0.69 -0.34,-1.41 -0.44,-2.15 -0.1,-0.72 -0.15,-1.45 -0.15,-2.18 0,-2.18 0.44,-4.26 1.23,-6.17 0.82,-1.97 2.03,-3.75 3.53,-5.23 1.49,-1.48 3.28,-2.68 5.27,-3.5 1.92,-0.79 4.02,-1.22 6.22,-1.22 2.2,0 4.3,0.43 6.21,1.22 1.99,0.82 3.78,2.01 5.27,3.49 1.49,1.48 2.7,3.26 3.52,5.23 0.79,1.9 1.23,3.98 1.23,6.17 0,2.18 -0.44,4.26 -1.23,6.16zm-6.64 -2.38c-0.1,-0.17 -0.37,-0.27 -0.78,-0.47 -0.41,-0.2 -2.4,-1.17 -2.78,-1.31 -0.37,-0.14 -0.64,-0.2 -0.91,0.2 -0.27,0.4 -1.05,1.31 -1.29,1.58 -0.24,0.27 -0.48,0.3 -0.88,0.1 -0.41,-0.2 -1.72,-0.62 -3.27,-2 -1.2,-1.07 -2.01,-2.38 -2.26,-2.79 -0.24,-0.4 -0.02,-0.62 0.18,-0.82 0.19,-0.18 0.41,-0.47 0.61,-0.7 0.2,-0.24 0.27,-0.41 0.41,-0.67 0.14,-0.27 0.07,-0.51 -0.03,-0.71 -0.1,-0.2 -0.91,-2.18 -1.25,-2.99 -0.34,-0.81 -0.67,-0.67 -0.91,-0.67 -0.24,0 -0.51,-0.03 -0.78,-0.03 -0.27,0 -0.71,0.1 -1.08,0.51 -0.37,0.4 -1.42,1.38 -1.42,3.36 0,1.98 1.45,3.9 1.66,4.17 0.21,0.27 2.81,4.47 6.93,6.08 4.13,1.61 4.13,1.08 4.87,1.01 0.74,-0.06 2.4,-0.97 2.74,-1.91 0.33,-0.94 0.33,-1.75 0.24,-1.92zm-13.49 -16.08c-0.81,0.33 -1.59,0.75 -2.32,1.23 -0.74,0.49 -1.42,1.05 -2.04,1.66 -0.62,0.61 -1.18,1.29 -1.67,2.03 -0.49,0.72 -0.9,1.49 -1.24,2.3 -0.33,0.79 -0.59,1.62 -0.76,2.49 -0.17,0.84 -0.26,1.71 -0.26,2.59 0,0.36 0.01,0.71 0.04,1.04 0.03,0.36 0.07,0.71 0.12,1.03 0.05,0.34 0.12,0.68 0.21,1.02 0.08,0.33 0.18,0.67 0.29,1.01 0.1,0.31 0.21,0.6 0.33,0.89 0.12,0.29 0.25,0.58 0.4,0.88l0 -0c0.15,0.29 0.3,0.58 0.46,0.84 0.17,0.29 0.34,0.56 0.52,0.81l0 -0 0.11 0.16 0.24 0.34 -0.13 0.39 -0.06 0.19 -1.3 3.84 4.07 -1.29 0 0 0.17 -0.05 0.36 -0.12 0.32 0.2 0.16 0.1c0.24,0.15 0.5,0.3 0.77,0.44 0.25,0.13 0.52,0.27 0.81,0.4 0.29,0.13 0.57,0.25 0.84,0.35l0 -0c0.3,0.11 0.58,0.21 0.85,0.29 0.32,0.1 0.64,0.18 0.95,0.25 0.3,0.07 0.62,0.12 0.96,0.17 0.32,0.05 0.65,0.08 0.97,0.11 0.31,0.02 0.64,0.03 0.98,0.03 0.9,0 1.77,-0.09 2.62,-0.25 0.87,-0.17 1.71,-0.43 2.51,-0.75 0.81,-0.34 1.59,-0.75 2.32,-1.24 0.73,-0.49 1.42,-1.05 2.04,-1.66 0.62,-0.62 1.18,-1.3 1.67,-2.02 0.48,-0.72 0.9,-1.49 1.24,-2.3 0.33,-0.79 0.59,-1.62 0.76,-2.49 0.17,-0.84 0.26,-1.7 0.26,-2.59 0,-0.89 -0.09,-1.75 -0.26,-2.59 -0.17,-0.86 -0.43,-1.7 -0.76,-2.49 -0.34,-0.81 -0.76,-1.58 -1.24,-2.3l0 -0c-0.49,-0.73 -1.05,-1.4 -1.67,-2.02 -0.62,-0.61 -1.3,-1.17 -2.04,-1.66 -0.73,-0.48 -1.51,-0.9 -2.32,-1.23 -0.79,-0.33 -1.63,-0.58 -2.51,-0.75 -0.84,-0.17 -1.72,-0.25 -2.62,-0.25 -0.9,0 -1.77,0.09 -2.62,0.25 -0.87,0.17 -1.71,0.43 -2.51,0.75z"/>
 </g>
</svg>
